<?xml version="1.0" encoding="utf-8"?>
<!-- Generator: Adobe Illustrator 24.0.2, SVG Export Plug-In . SVG Version: 6.00 Build 0)  -->
<svg version="1.1" id="Layer_1" xmlns="http://www.w3.org/2000/svg" xmlns:xlink="http://www.w3.org/1999/xlink" x="0px" y="0px"
	 viewBox="0 0 500 500" style="enable-background:new 0 0 500 500;" xml:space="preserve">
<style type="text/css">
	.st0{opacity:0.2;fill:#315ADD;}
	.st1{fill-rule:evenodd;clip-rule:evenodd;fill:#F6931E;}
	.st2{fill-rule:evenodd;clip-rule:evenodd;fill:url(#SVGID_1_);}
	.st3{fill-rule:evenodd;clip-rule:evenodd;fill:#594A42;}
	.st4{fill-rule:evenodd;clip-rule:evenodd;fill:#315ADD;}
	.st5{fill-rule:evenodd;clip-rule:evenodd;fill:#1BDDD8;}
	.st6{fill-rule:evenodd;clip-rule:evenodd;fill:url(#SVGID_2_);}
	.st7{fill-rule:evenodd;clip-rule:evenodd;fill:#750B48;}
	.st8{fill-rule:evenodd;clip-rule:evenodd;fill:url(#SVGID_3_);}
	.st9{fill-rule:evenodd;clip-rule:evenodd;fill:#44B21B;}
	.st10{fill-rule:evenodd;clip-rule:evenodd;fill:#70C957;}
	.st11{fill-rule:evenodd;clip-rule:evenodd;fill:#FFFFFF;stroke:#315ADD;stroke-miterlimit:10;}
	.st12{fill-rule:evenodd;clip-rule:evenodd;fill:#5972AA;}
	.st13{fill-rule:evenodd;clip-rule:evenodd;fill:#7A8EC1;}
	.st14{opacity:0.2;fill-rule:evenodd;clip-rule:evenodd;fill:#315ADD;}
	.st15{fill:#66B242;}
	.st16{fill:#77CE52;}
	.st17{fill:none;stroke:#FFFFFF;stroke-miterlimit:10;}
	.st18{fill:#44B21B;}
	.st19{fill:none;stroke:#3B1910;stroke-miterlimit:10;}
	.st20{fill:#ABC7EF;}
	.st21{fill:#315ADD;}
	.st22{fill:#629CC4;}
	.st23{fill:#FFFFFF;}
	.st24{fill:#EBA3B1;}
	.st25{fill:#9FE283;}
	.st26{fill:#1B1B1B;}
	.st27{fill:#DB8297;}
	.st28{fill:none;stroke:#32110A;stroke-width:0.269;stroke-miterlimit:10;}
	.st29{fill:#E06C81;}
</style>
<g>
	<path class="st0" d="M161.28,147.93c0,1.51-0.61,2.89-1.62,3.88c-0.99,1-2.37,1.62-3.87,1.62H38.17c-3.02,0-5.5-2.48-5.5-5.5
		c0-1.51,0.62-2.89,1.62-3.88c0.99-1,2.37-1.62,3.88-1.62h5.56c2.2-5.1,7.26-8.67,13.17-8.67c3.97,0,7.57,1.62,10.17,4.23
		c3.46-5.88,9.86-9.82,17.17-9.82c2.01,0,3.95,0.3,5.78,0.86c3.83-7.2,11.39-12.1,20.11-12.1c10.47,0,19.28,7.07,21.94,16.69
		c1.93-0.97,4.11-1.52,6.41-1.52c6.53,0,12.04,4.36,13.77,10.33h3.54C158.8,142.43,161.28,144.91,161.28,147.93"/>
	<g>
		<g>
			<path class="st1" d="M299.98,89.95v300.11l35.68-9.94V102.05L299.98,89.95z M327.34,370.93l-20.23,5.43v-8.01l20.23-3.88V370.93z
				 M327.34,343.01c-6.74,1.42-13.49,2.85-20.23,4.27c0-2.67,0-5.34,0-8.01c6.74-0.94,13.48-1.88,20.23-2.82
				C327.34,338.63,327.34,340.82,327.34,343.01z M327.34,315.08c-6.74,1.04-13.49,2.07-20.23,3.11c0-2.67,0-5.34,0-8.01
				c6.74-0.59,13.48-1.17,20.23-1.76C327.34,310.64,327.34,312.86,327.34,315.08z M327.34,287.15c-6.74,0.65-13.49,1.3-20.23,1.95
				c0-2.67,0-5.34,0-8.01c6.74-0.23,13.48-0.47,20.23-0.7C327.34,282.65,327.34,284.9,327.34,287.15z M327.34,259.23
				c-6.74,0.26-13.49,0.52-20.23,0.78c0-2.67,0-5.34,0-8.01c6.74,0.12,13.48,0.24,20.23,0.36
				C327.34,254.65,327.34,256.94,327.34,259.23z M327.34,231.31c-6.74-0.12-13.49-0.25-20.23-0.37c0-2.67,0-5.34,0-8.01
				c6.74,0.47,13.48,0.94,20.23,1.41C327.34,226.66,327.34,228.98,327.34,231.31z M327.34,203.38c-6.74-0.51-13.49-1.03-20.23-1.54
				c0-2.67,0-5.34,0-8.01c6.74,0.83,13.48,1.65,20.23,2.47C327.34,198.67,327.34,201.02,327.34,203.38z M327.34,175.46
				c-6.74-0.9-13.49-1.8-20.23-2.7c0-2.67,0-5.34,0-8.01c6.74,1.18,13.48,2.35,20.23,3.53
				C327.34,170.67,327.34,173.07,327.34,175.46z M327.34,147.53c-6.74-1.29-13.49-2.57-20.23-3.86c0-2.67,0-5.34,0-8.01
				c6.74,1.53,13.48,3.06,20.23,4.59C327.34,142.68,327.34,145.11,327.34,147.53z M327.34,119.61l-20.23-5.02v-8.01l20.23,5.65
				V119.61z"/>
			<linearGradient id="SVGID_1_" gradientUnits="userSpaceOnUse" x1="277.5926" y1="79.1809" x2="277.5926" y2="396.9006">
				<stop  offset="0" style="stop-color:#FFDD17"/>
				<stop  offset="0.2558" style="stop-color:#FDCF18"/>
				<stop  offset="0.739" style="stop-color:#F9AA1C"/>
				<stop  offset="1" style="stop-color:#F6931E"/>
			</linearGradient>
			<path class="st2" d="M257.97,139.36l16.65,5.23v243.98l22.6,2.42V88.95l-39.25,19.05V139.36z M289.44,365
				c-3.68-0.76-7.37-1.52-11.06-2.29c0-2.66,0-5.31,0-7.97c3.69,0.56,7.37,1.13,11.06,1.69C289.44,359.29,289.44,362.14,289.44,365z
				 M289.44,349.49c-3.68-0.64-7.37-1.28-11.06-1.93c0-2.66,0-5.31,0-7.97c3.69,0.45,7.37,0.89,11.06,1.33
				C289.44,343.79,289.44,346.64,289.44,349.49z M289.44,333.99c-3.68-0.52-7.37-1.04-11.06-1.56c0-2.66,0-5.31,0-7.97
				c3.69,0.32,7.37,0.65,11.06,0.97C289.44,328.28,289.44,331.14,289.44,333.99z M289.44,318.49c-3.68-0.4-7.37-0.81-11.06-1.21
				c0-2.66,0-5.31,0-7.97c3.69,0.21,7.37,0.41,11.06,0.61C289.44,312.78,289.44,315.64,289.44,318.49z M289.44,302.99
				c-3.68-0.28-7.37-0.56-11.06-0.85c0-2.65,0-5.31,0-7.97c3.69,0.09,7.37,0.17,11.06,0.25
				C289.44,297.28,289.44,300.14,289.44,302.99z M289.44,287.49c-3.68-0.16-7.37-0.32-11.06-0.49c0-2.65,0-5.31,0-7.97
				c3.69-0.04,7.37-0.07,11.06-0.1C289.44,281.78,289.44,284.63,289.44,287.49z M289.44,271.99c-3.68-0.04-7.37-0.09-11.06-0.13
				c0-2.65,0-5.31,0-7.97c3.69-0.15,7.37-0.31,11.06-0.47C289.44,266.28,289.44,269.13,289.44,271.99z M289.44,256.49
				c-3.68,0.08-7.37,0.15-11.06,0.23c0-2.66,0-5.32,0-7.97c3.69-0.28,7.37-0.55,11.06-0.83
				C289.44,250.78,289.44,253.63,289.44,256.49z M289.44,240.98c-3.68,0.2-7.37,0.4-11.06,0.59c0-2.66,0-5.31,0-7.97
				c3.69-0.4,7.37-0.79,11.06-1.19C289.44,235.28,289.44,238.13,289.44,240.98z M289.44,225.48c-3.68,0.31-7.37,0.63-11.06,0.95
				c0-2.66,0-5.31,0-7.97c3.69-0.51,7.37-1.03,11.06-1.54C289.44,219.77,289.44,222.63,289.44,225.48z M289.44,209.98
				c-3.68,0.44-7.37,0.87-11.06,1.31c0-2.65,0-5.31,0-7.97c3.69-0.63,7.37-1.27,11.06-1.9
				C289.44,204.27,289.44,207.13,289.44,209.98z M289.44,194.48c-3.68,0.56-7.37,1.11-11.06,1.67c0-2.66,0-5.31,0-7.97
				c3.69-0.76,7.37-1.51,11.06-2.27C289.44,188.77,289.44,191.62,289.44,194.48z M289.44,178.98c-3.68,0.68-7.37,1.35-11.06,2.03
				c0-2.66,0-5.31,0-7.97c3.69-0.88,7.37-1.75,11.06-2.63C289.44,173.27,289.44,176.12,289.44,178.98z M289.44,163.48
				c-3.68,0.8-7.37,1.59-11.06,2.39c0-2.66,0-5.31,0-7.97c3.69-0.99,7.37-1.99,11.06-2.99
				C289.44,157.77,289.44,160.62,289.44,163.48z M289.44,147.97c-3.68,0.92-7.37,1.83-11.06,2.75c0-2.66,0-5.31,0-7.97
				c3.69-1.11,7.37-2.23,11.06-3.35C289.44,142.27,289.44,145.12,289.44,147.97z M289.44,132.47c-3.68,1.04-7.37,2.07-11.06,3.11
				c0-2.66,0-5.31,0-7.97c3.69-1.23,7.37-2.47,11.06-3.7C289.44,126.77,289.44,129.62,289.44,132.47z M278.38,112.47l11.06-4.07
				v8.56l-11.06,3.47V112.47z M278.38,369.88l11.06,2.05v8.56l-11.06-2.64V369.88z M271.56,136.97c-2.86,0.91-5.71,1.82-8.57,2.73
				c0-2.06,0-4.12,0-6.18c2.86-1.07,5.72-2.13,8.57-3.19C271.56,132.54,271.56,134.76,271.56,136.97z M262.98,118.88l8.58-3.47v6.64
				l-8.58,3.01V118.88z"/>
		</g>
		<g>
			<path class="st3" d="M239.13,398.06l34.11-8.22V146.78l-34.11-11.22V398.06z M243.89,151.1l24.97,7.76v6.27l-24.97-7.23V151.1z
				 M243.89,168.6c8.33,2.25,16.65,4.49,24.97,6.74c0,2.07,0,4.14,0,6.2c-8.32-2.05-16.65-4.1-24.97-6.15
				C243.89,173.13,243.89,170.86,243.89,168.6z M243.89,186.09c8.33,1.91,16.65,3.82,24.97,5.72c0,2.05,0,4.1,0,6.14
				c-8.32-1.69-16.65-3.38-24.97-5.07C243.89,190.62,243.89,188.35,243.89,186.09z M243.89,203.58c8.33,1.57,16.65,3.14,24.97,4.71
				c0,2.03,0,4.06,0,6.08c-8.32-1.33-16.65-2.66-24.97-3.99C243.89,208.11,243.89,205.85,243.89,203.58z M243.89,221.07
				c8.33,1.23,16.65,2.46,24.97,3.69c0,2.01,0,4.01,0,6.02c-8.32-0.97-16.65-1.94-24.97-2.92
				C243.89,225.6,243.89,223.34,243.89,221.07z M243.89,238.57c8.33,0.89,16.65,1.78,24.97,2.67c0,1.99,0,3.98,0,5.96
				c-8.32-0.61-16.65-1.22-24.97-1.84C243.89,243.1,243.89,240.83,243.89,238.57z M243.89,256.06c8.33,0.55,16.65,1.1,24.97,1.65
				c0,1.97,0,3.93,0,5.9c-8.32-0.25-16.65-0.51-24.97-0.76C243.89,260.59,243.89,258.33,243.89,256.06z M243.89,273.55
				c8.33,0.22,16.65,0.43,24.97,0.64c0,1.95,0,3.89,0,5.84c-8.32,0.11-16.65,0.21-24.97,0.32
				C243.89,278.08,243.89,275.82,243.89,273.55z M243.89,291.05c8.33-0.13,16.65-0.25,24.97-0.38c0,1.93,0,3.85,0,5.78
				c-8.32,0.47-16.65,0.93-24.97,1.4C243.89,295.58,243.89,293.31,243.89,291.05z M243.89,308.54c8.33-0.47,16.65-0.93,24.97-1.4
				c0,1.9,0,3.81,0,5.72c-8.32,0.82-16.65,1.65-24.97,2.47C243.89,313.07,243.89,310.8,243.89,308.54z M243.89,326.04
				c8.33-0.81,16.65-1.61,24.97-2.41c0,1.89,0,3.77,0,5.66c-8.32,1.18-16.65,2.37-24.97,3.55
				C243.89,330.56,243.89,328.3,243.89,326.04z M243.89,343.53c8.33-1.14,16.65-2.29,24.97-3.43c0,1.86,0,3.73,0,5.6
				c-8.32,1.54-16.65,3.08-24.97,4.63C243.89,348.06,243.89,345.8,243.89,343.53z M243.89,361.02c8.33-1.48,16.65-2.97,24.97-4.45
				c0,1.84,0,3.69,0,5.54c-8.32,1.9-16.65,3.8-24.97,5.71C243.89,365.55,243.89,363.29,243.89,361.02z M243.89,378.52l24.97-5.46
				v5.47l-24.97,6.78V378.52z"/>
			<path class="st4" d="M170.85,387.96l65.52,9.95V135.94l-65.52,22.52V387.96z M225.05,384.84l-10.95-1.51v-7.33l10.95,0.97V384.84
				z M225.05,371.61c-3.65-0.42-7.3-0.83-10.95-1.25c0-2.44,0-4.89,0-7.33c3.65,0.24,7.3,0.47,10.95,0.71
				C225.05,366.36,225.05,368.98,225.05,371.61z M225.05,358.37c-3.65-0.33-7.3-0.66-10.95-0.99c0-2.44,0-4.88,0-7.33
				c3.65,0.15,7.3,0.29,10.95,0.44C225.05,353.12,225.05,355.75,225.05,358.37z M225.05,345.13c-3.65-0.24-7.3-0.48-10.95-0.72
				c0-2.44,0-4.88,0-7.33c3.65,0.06,7.3,0.12,10.95,0.18C225.05,339.88,225.05,342.51,225.05,345.13z M225.04,331.89
				c-3.65-0.15-7.3-0.3-10.95-0.46c0-2.44,0-4.88,0-7.32c3.65-0.03,7.3-0.06,10.95-0.08C225.04,326.65,225.04,329.27,225.04,331.89z
				 M225.04,318.66c-3.65-0.07-7.3-0.13-10.95-0.2c0-2.44,0-4.88,0-7.32c3.65-0.12,7.3-0.23,10.95-0.35
				C225.04,313.41,225.04,316.03,225.04,318.66z M225.04,305.42c-3.65,0.02-7.3,0.05-10.95,0.07c0-2.44,0-4.88,0-7.33
				c3.65-0.2,7.3-0.41,10.95-0.61C225.04,300.17,225.04,302.8,225.04,305.42z M225.04,292.19c-3.65,0.11-7.3,0.22-10.95,0.33
				c0-2.44,0-4.88,0-7.32c3.65-0.29,7.3-0.58,10.95-0.87C225.04,286.94,225.04,289.56,225.04,292.19z M225.04,278.95
				c-3.65,0.2-7.3,0.39-10.95,0.59c0-2.44,0-4.88,0-7.33c3.65-0.38,7.3-0.76,10.95-1.14C225.04,273.7,225.04,276.33,225.04,278.95z
				 M225.03,265.71c-3.65,0.28-7.3,0.57-10.95,0.85c0-2.44,0-4.88,0-7.32c3.65-0.47,7.3-0.93,10.95-1.4
				C225.03,260.46,225.03,263.09,225.03,265.71z M225.03,252.47c-3.65,0.38-7.3,0.75-10.95,1.12c0-2.44,0-4.88,0-7.33
				c3.65-0.56,7.3-1.11,10.95-1.66C225.03,247.23,225.03,249.85,225.03,252.47z M214.08,227.64c0-2.44,0-4.88,0-7.32
				c3.65-0.73,7.3-1.46,10.95-2.19c0,2.62,0,5.25,0,7.87C221.38,226.55,217.73,227.1,214.08,227.64z M225.03,239.24
				c-3.65,0.46-7.3,0.92-10.95,1.38c0-2.44,0-4.88,0-7.32c3.65-0.64,7.3-1.29,10.95-1.93C225.03,233.99,225.03,236.61,225.03,239.24
				z M225.03,212.76c-3.65,0.63-7.3,1.27-10.95,1.91c0-2.44,0-4.88,0-7.32c3.65-0.82,7.3-1.64,10.95-2.45
				C225.03,207.52,225.03,210.14,225.03,212.76z M225.03,199.53c-3.65,0.72-7.3,1.45-10.95,2.17c0-2.44,0-4.88,0-7.32
				c3.65-0.91,7.3-1.81,10.95-2.72C225.03,194.28,225.03,196.9,225.03,199.53z M225.02,186.29c-3.65,0.81-7.3,1.62-10.95,2.43
				c0-2.44,0-4.88,0-7.33c3.65-0.99,7.3-1.98,10.95-2.98C225.02,181.04,225.02,183.67,225.02,186.29z M225.02,173.05
				c-3.65,0.9-7.3,1.8-10.95,2.7c0-2.44,0-4.88,0-7.32c3.65-1.08,7.3-2.16,10.95-3.24C225.02,167.81,225.02,170.43,225.02,173.05z
				 M214.07,155.45l10.95-3.51v7.87l-10.95,2.96V155.45z M199.86,159.83l6.98-2.23v7.05l-6.98,1.89V159.83z M199.84,172.45
				c2.33-0.69,4.65-1.38,6.98-2.06c0,2.35,0,4.7,0,7.05c-2.33,0.57-4.65,1.15-6.98,1.72C199.84,176.92,199.84,174.69,199.84,172.45z
				 M199.82,185.08c2.33-0.63,4.65-1.27,6.98-1.9c0,2.35,0,4.7,0,7.05c-2.33,0.52-4.65,1.04-6.98,1.55
				C199.82,189.55,199.82,187.31,199.82,185.08z M199.8,197.71c2.33-0.58,4.65-1.16,6.98-1.73c0,2.35,0,4.7,0,7.05
				c-2.33,0.46-4.65,0.92-6.98,1.38C199.8,202.18,199.8,199.94,199.8,197.71z M199.77,210.33c2.33-0.52,4.65-1.04,6.98-1.56
				c0,2.35,0,4.7,0,7.05c-2.33,0.4-4.65,0.81-6.98,1.21C199.77,214.8,199.77,212.57,199.77,210.33z M199.75,222.96
				c2.33-0.46,4.65-0.93,6.98-1.39c0,2.35,0,4.7,0,7.05c-2.33,0.35-4.65,0.7-6.98,1.05C199.75,227.43,199.75,225.19,199.75,222.96z
				 M199.73,235.58c2.33-0.41,4.65-0.82,6.98-1.23c0,2.35,0,4.7,0,7.05c-2.33,0.29-4.66,0.59-6.98,0.88
				C199.73,240.05,199.73,237.82,199.73,235.58z M199.71,248.21c2.33-0.35,4.65-0.71,6.98-1.06c0,2.35,0,4.7,0,7.05
				c-2.33,0.24-4.65,0.48-6.98,0.71C199.71,252.68,199.71,250.45,199.71,248.21z M199.68,260.84c2.33-0.3,4.65-0.6,6.98-0.89
				c0,2.35,0,4.7,0,7.05c-2.33,0.18-4.65,0.36-6.98,0.54C199.68,265.31,199.68,263.07,199.68,260.84z M199.66,273.47
				c2.33-0.24,4.65-0.49,6.98-0.72c0,2.35,0,4.7,0,7.05c-2.33,0.13-4.65,0.25-6.98,0.38C199.66,277.94,199.66,275.7,199.66,273.47z
				 M199.64,286.09c2.33-0.19,4.66-0.37,6.98-0.56c0,2.35,0,4.7,0,7.05c-2.33,0.07-4.65,0.14-6.98,0.21
				C199.64,290.56,199.64,288.33,199.64,286.09z M199.61,298.72c2.33-0.13,4.66-0.26,6.98-0.39c0,2.35,0,4.7,0,7.05
				c-2.33,0.01-4.65,0.02-6.98,0.04C199.61,303.19,199.61,300.95,199.61,298.72z M199.59,311.34c2.33-0.07,4.66-0.15,6.98-0.22
				c0,2.35,0,4.7,0,7.05c-2.33-0.04-4.65-0.09-6.98-0.13C199.59,315.81,199.59,313.58,199.59,311.34z M199.57,323.97
				c2.33-0.02,4.65-0.04,6.98-0.05c0,2.35,0,4.7,0,7.05c-2.33-0.1-4.65-0.2-6.98-0.29C199.57,328.44,199.57,326.2,199.57,323.97z
				 M199.55,336.59c2.33,0.04,4.65,0.08,6.98,0.11c0,2.35,0,4.7,0,7.06c-2.33-0.16-4.66-0.31-6.98-0.46
				C199.55,341.07,199.55,338.83,199.55,336.59z M199.52,349.22c2.33,0.09,4.65,0.19,6.98,0.28c0,2.35,0,4.7,0,7.05
				c-2.33-0.21-4.65-0.42-6.98-0.63C199.52,353.69,199.52,351.46,199.52,349.22z M199.5,361.85c2.33,0.15,4.66,0.3,6.98,0.45
				c0,2.35,0,4.7,0,7.05c-2.33-0.26-4.65-0.53-6.98-0.79C199.5,366.32,199.5,364.08,199.5,361.85z M199.48,374.48l6.98,0.62v7.05
				l-6.98-0.96V374.48z M193.75,380.58l-5.07-0.7v-6.24l5.07,0.45V380.58z M193.75,368.09c-1.69-0.19-3.38-0.39-5.07-0.58
				c0-2.08,0-4.16,0-6.24c1.69,0.11,3.38,0.22,5.07,0.33C193.75,363.76,193.75,365.92,193.75,368.09z M188.68,355.14
				c0-2.08,0-4.16,0-6.24c1.69,0.07,3.38,0.14,5.07,0.2c0,2.16,0,4.33,0,6.49C192.06,355.44,190.37,355.29,188.68,355.14z
				 M193.75,343.1c-1.69-0.11-3.38-0.22-5.07-0.34c0-2.08,0-4.16,0-6.24c1.69,0.03,3.38,0.06,5.07,0.08
				C193.75,338.78,193.75,340.94,193.75,343.1z M188.68,330.39c0-2.08,0-4.16,0-6.23c1.69-0.01,3.38-0.03,5.07-0.04
				c0,2.16,0,4.33,0,6.49C192.06,330.54,190.37,330.47,188.68,330.39z M193.75,318.12c-1.69-0.03-3.38-0.06-5.07-0.09
				c0-2.08,0-4.16,0-6.24c1.69-0.05,3.38-0.11,5.07-0.16C193.75,313.79,193.75,315.95,193.75,318.12z M188.68,305.66
				c0-2.08,0-4.16,0-6.24c1.69-0.1,3.38-0.19,5.07-0.28c0,2.16,0,4.33,0,6.49C192.06,305.64,190.37,305.65,188.68,305.66z
				 M193.75,293.14c-1.69,0.05-3.38,0.1-5.07,0.15c0-2.08,0-4.16,0-6.23c1.69-0.13,3.38-0.27,5.07-0.4
				C193.75,288.81,193.75,290.97,193.75,293.14z M193.75,280.64c-1.69,0.09-3.38,0.18-5.07,0.28c0-2.08,0-4.16,0-6.24
				c1.69-0.18,3.38-0.35,5.07-0.53C193.75,276.32,193.75,278.48,193.75,280.64z M193.74,268.15c-1.69,0.13-3.38,0.26-5.07,0.39
				c0-2.08,0-4.16,0-6.23c1.69-0.22,3.38-0.43,5.07-0.65C193.74,263.82,193.74,265.99,193.74,268.15z M193.74,255.66
				c-1.69,0.17-3.38,0.35-5.07,0.52c0-2.08,0-4.16,0-6.24c1.69-0.26,3.38-0.51,5.07-0.77C193.74,251.33,193.74,253.5,193.74,255.66z
				 M193.74,243.17c-1.69,0.21-3.38,0.43-5.07,0.64c0-2.08,0-4.16,0-6.24c1.69-0.3,3.38-0.59,5.07-0.89
				C193.74,238.84,193.74,241,193.74,243.17z M193.74,230.67c-1.69,0.25-3.38,0.51-5.07,0.76c0-2.08,0-4.15,0-6.24
				c1.69-0.34,3.38-0.68,5.07-1.01C193.74,226.35,193.74,228.51,193.74,230.67z M193.74,218.18c-1.69,0.29-3.38,0.59-5.07,0.88
				c0-2.08,0-4.16,0-6.24c1.69-0.38,3.38-0.76,5.07-1.13C193.74,213.86,193.74,216.02,193.74,218.18z M193.74,205.69
				c-1.69,0.33-3.38,0.67-5.07,1c0-2.08,0-4.16,0-6.23c1.69-0.42,3.38-0.84,5.07-1.26C193.74,201.36,193.74,203.53,193.74,205.69z
				 M188.66,194.32c0-2.08,0-4.16,0-6.23c1.69-0.46,3.38-0.92,5.07-1.38c0,2.16,0,4.32,0,6.49
				C192.05,193.57,190.35,193.95,188.66,194.32z M193.73,180.7c-1.69,0.41-3.38,0.83-5.07,1.25c0-2.08,0-4.16,0-6.24
				c1.69-0.5,3.38-1,5.07-1.5C193.73,176.38,193.73,178.54,193.73,180.7z M188.66,163.35l5.07-1.62v6.49l-5.07,1.37V163.35z
				 M184.05,379.43l-4.38-0.6v-5.86l4.38,0.39V379.43z M184.02,367.16c-1.46-0.16-2.92-0.33-4.38-0.5c0-1.95,0-3.9,0-5.86
				c1.46,0.09,2.92,0.19,4.38,0.28C184.02,363.12,184.02,365.14,184.02,367.16z M183.99,354.9c-1.46-0.13-2.92-0.26-4.38-0.4
				c0-1.95,0-3.9,0-5.85c1.46,0.06,2.92,0.12,4.38,0.18C183.99,350.86,183.99,352.88,183.99,354.9z M183.95,342.64
				c-1.46-0.09-2.92-0.19-4.38-0.29c0-1.95,0-3.91,0-5.86c1.46,0.02,2.92,0.05,4.38,0.07C183.95,338.59,183.95,340.61,183.95,342.64
				z M183.92,330.38c-1.46-0.06-2.92-0.12-4.37-0.18c0-1.95,0-3.91,0-5.86c1.46-0.01,2.92-0.02,4.37-0.03
				C183.92,326.33,183.92,328.35,183.92,330.38z M183.89,318.11c-1.46-0.03-2.92-0.05-4.38-0.08c0-1.95,0-3.91,0-5.86
				c1.46-0.05,2.92-0.09,4.38-0.14C183.89,314.07,183.89,316.09,183.89,318.11z M183.85,305.85c-1.46,0.01-2.92,0.02-4.38,0.02
				c0-1.95,0-3.9,0-5.85c1.46-0.08,2.92-0.16,4.38-0.25C183.85,301.8,183.85,303.83,183.85,305.85z M183.82,293.59
				c-1.46,0.05-2.92,0.09-4.38,0.13c0-1.95,0-3.9,0-5.86c1.46-0.12,2.92-0.23,4.38-0.35C183.82,289.54,183.82,291.57,183.82,293.59z
				 M183.79,281.33c-1.46,0.08-2.92,0.16-4.37,0.24c0-1.95,0-3.9,0-5.86c1.46-0.15,2.92-0.3,4.37-0.45
				C183.79,277.28,183.79,279.31,183.79,281.33z M183.75,269.07c-1.46,0.12-2.92,0.23-4.38,0.34c0-1.95,0-3.91,0-5.86
				c1.46-0.19,2.92-0.37,4.38-0.56C183.75,265.02,183.75,267.04,183.75,269.07z M183.72,256.8c-1.46,0.15-2.92,0.3-4.38,0.45
				c0-1.95,0-3.9,0-5.86c1.46-0.22,2.92-0.44,4.38-0.66C183.72,252.76,183.72,254.78,183.72,256.8z M183.69,244.54
				c-1.46,0.18-2.92,0.37-4.38,0.55c0-1.95,0-3.9,0-5.85c1.46-0.26,2.92-0.51,4.38-0.77C183.69,240.49,183.69,242.52,183.69,244.54z
				 M183.65,232.28c-1.46,0.22-2.92,0.44-4.38,0.66c0-1.95,0-3.9,0-5.86c1.46-0.29,2.92-0.58,4.38-0.88
				C183.65,228.23,183.65,230.25,183.65,232.28z M183.62,220.02c-1.46,0.25-2.92,0.51-4.38,0.76c0-1.95,0-3.9,0-5.86
				c1.46-0.33,2.92-0.65,4.38-0.98C183.62,215.97,183.62,217.99,183.62,220.02z M183.59,207.76c-1.46,0.29-2.92,0.58-4.37,0.86
				c0-1.95,0-3.9,0-5.85c1.46-0.36,2.92-0.73,4.37-1.09C183.59,203.7,183.59,205.73,183.59,207.76z M183.55,195.49
				c-1.46,0.33-2.92,0.65-4.38,0.97c0-1.95,0-3.9,0-5.85c1.46-0.4,2.92-0.79,4.38-1.19C183.55,191.44,183.55,193.47,183.55,195.49z
				 M183.52,183.23c-1.46,0.36-2.92,0.72-4.38,1.08c0-1.95,0-3.9,0-5.86c1.46-0.43,2.92-0.86,4.38-1.29
				C183.52,179.18,183.52,181.2,183.52,183.23z M179.11,166.3l4.38-1.4v6.07l-4.38,1.18V166.3z"/>
		</g>
		<g>
			<path class="st5" d="M95.88,214.99v174.36l24.47,5.9v-188.3L95.88,214.99z M99.02,377.31l17.92,3.92v4.87l-17.92-4.86V377.31z
				 M99.02,365.49c5.97,1.06,11.94,2.12,17.92,3.19c0,1.62,0,3.25,0,4.87c-5.97-1.36-11.94-2.73-17.92-4.09
				C99.02,368.13,99.02,366.81,99.02,365.49z M99.02,353.67c5.97,0.82,11.94,1.64,17.92,2.46c0,1.63,0,3.25,0,4.87
				c-5.97-1.11-11.94-2.21-17.92-3.32C99.02,356.34,99.02,355.01,99.02,353.67z M99.02,341.85c5.97,0.58,11.94,1.15,17.92,1.73
				c0,1.62,0,3.25,0,4.88c-5.97-0.85-11.94-1.7-17.92-2.55C99.02,344.55,99.02,343.2,99.02,341.85z M99.02,330.03
				c5.97,0.34,11.94,0.67,17.92,1c0,1.63,0,3.25,0,4.87c-5.97-0.59-11.94-1.18-17.92-1.77C99.02,332.76,99.02,331.39,99.02,330.03z
				 M99.02,318.21c5.97,0.09,11.94,0.18,17.92,0.27c0,1.62,0,3.25,0,4.87c-5.97-0.33-11.94-0.66-17.92-1
				C99.02,320.97,99.02,319.59,99.02,318.21z M99.02,306.39c5.97-0.15,11.94-0.31,17.92-0.46c0,1.62,0,3.25,0,4.87
				c-5.97-0.07-11.94-0.15-17.92-0.23C99.02,309.18,99.02,307.79,99.02,306.39z M99.02,294.57c5.97-0.4,11.94-0.79,17.92-1.19
				c0,1.62,0,3.25,0,4.88c-5.97,0.18-11.94,0.36-17.92,0.55C99.02,297.39,99.02,295.98,99.02,294.57z M99.02,282.75
				c5.97-0.64,11.94-1.28,17.92-1.92c0,1.62,0,3.25,0,4.87c-5.97,0.44-11.94,0.88-17.92,1.32C99.02,285.6,99.02,284.18,99.02,282.75
				z M99.02,270.93c5.97-0.88,11.94-1.77,17.92-2.65c0,1.63,0,3.25,0,4.88c-5.97,0.7-11.94,1.4-17.92,2.09
				C99.02,273.81,99.02,272.37,99.02,270.93z M99.02,259.11c5.97-1.12,11.94-2.25,17.92-3.38c0,1.63,0,3.25,0,4.88
				c-5.97,0.96-11.94,1.91-17.92,2.87C99.02,262.02,99.02,260.57,99.02,259.11z M99.02,247.29c5.97-1.37,11.94-2.74,17.92-4.11
				c0,1.63,0,3.25,0,4.87c-5.97,1.21-11.94,2.43-17.92,3.64C99.02,250.23,99.02,248.76,99.02,247.29z M99.02,235.47
				c5.97-1.61,11.94-3.23,17.92-4.83c0,1.62,0,3.25,0,4.87c-5.97,1.47-11.94,2.94-17.92,4.41
				C99.02,238.44,99.02,236.96,99.02,235.47z M99.02,223.65l17.92-5.57v4.88l-17.92,5.19V223.65z"/>
			<linearGradient id="SVGID_2_" gradientUnits="userSpaceOnUse" x1="145.827" y1="205.8912" x2="145.827" y2="404.8622">
				<stop  offset="0" style="stop-color:#00B8C2"/>
				<stop  offset="0.2776" style="stop-color:#06AAC1"/>
				<stop  offset="0.8021" style="stop-color:#1585BD"/>
				<stop  offset="1" style="stop-color:#1C75BB"/>
			</linearGradient>
			<path class="st6" d="M169.33,223.36l-47-16.16v187.93l47-7.14V223.36z M130.44,380.12l7.86-0.69v5.26l-7.86,1.08V380.12z
				 M130.45,370.62c2.62-0.17,5.24-0.34,7.86-0.51c0,1.75,0,3.5,0,5.26c-2.62,0.3-5.24,0.6-7.86,0.89
				C130.45,374.39,130.45,372.5,130.45,370.62z M130.45,361.13c2.62-0.11,5.24-0.21,7.86-0.32c0,1.75,0,3.51,0,5.26
				c-2.62,0.23-5.24,0.47-7.86,0.71C130.45,364.89,130.45,363.01,130.45,361.13z M130.45,351.63c2.62-0.04,5.24-0.09,7.86-0.13
				c0,1.75,0,3.5,0,5.26c-2.62,0.17-5.24,0.35-7.86,0.52C130.45,355.4,130.45,353.51,130.45,351.63z M130.45,342.14
				c2.62,0.02,5.24,0.04,7.86,0.06c0,1.75,0,3.5,0,5.25c-2.62,0.11-5.24,0.22-7.86,0.33C130.45,345.9,130.45,344.02,130.45,342.14z
				 M130.45,332.64c2.62,0.08,5.24,0.17,7.86,0.25c0,1.75,0,3.5,0,5.26c-2.62,0.04-5.24,0.09-7.86,0.14
				C130.45,336.4,130.45,334.52,130.45,332.64z M130.45,323.15c2.62,0.15,5.24,0.29,7.86,0.44c0,1.75,0,3.5,0,5.25
				c-2.62-0.02-5.24-0.03-7.86-0.05C130.45,326.91,130.45,325.03,130.45,323.15z M130.45,313.65c2.62,0.21,5.24,0.42,7.86,0.63
				c0,1.75,0,3.5,0,5.25c-2.62-0.08-5.24-0.16-7.86-0.24C130.45,317.41,130.45,315.53,130.45,313.65z M130.45,304.15
				c2.62,0.27,5.24,0.55,7.86,0.82c0,1.75,0,3.5,0,5.26c-2.62-0.14-5.24-0.28-7.86-0.43C130.45,307.92,130.45,306.04,130.45,304.15z
				 M130.46,294.66c2.62,0.33,5.24,0.67,7.86,1c0,1.75,0,3.5,0,5.25c-2.62-0.2-5.24-0.41-7.86-0.61
				C130.46,298.42,130.46,296.54,130.46,294.66z M130.46,285.17c2.62,0.4,5.24,0.79,7.86,1.19c0,1.75,0,3.5,0,5.25
				c-2.62-0.27-5.24-0.54-7.86-0.8C130.46,288.93,130.46,287.04,130.46,285.17z M130.46,271.82c0-1.88,0-3.76,0-5.64
				c2.62,0.53,5.24,1.05,7.86,1.57c0,1.75,0,3.5,0,5.25C135.7,272.6,133.08,272.21,130.46,271.82z M130.46,275.67
				c2.62,0.46,5.24,0.92,7.86,1.38c0,1.75,0,3.5,0,5.25c-2.62-0.33-5.24-0.66-7.86-0.99C130.46,279.43,130.46,277.55,130.46,275.67z
				 M130.46,256.68c2.62,0.59,5.24,1.17,7.86,1.76c0,1.75,0,3.5,0,5.25c-2.62-0.46-5.24-0.91-7.86-1.37
				C130.46,260.44,130.46,258.56,130.46,256.68z M130.46,247.18c2.62,0.65,5.24,1.3,7.86,1.95c0,1.75,0,3.5,0,5.25
				c-2.62-0.52-5.24-1.04-7.86-1.56C130.46,250.95,130.46,249.06,130.46,247.18z M130.46,237.69c2.62,0.71,5.24,1.43,7.85,2.14
				c0,1.75,0,3.5,0,5.25c-2.62-0.58-5.24-1.17-7.85-1.75C130.46,241.45,130.46,239.57,130.46,237.69z M130.46,228.19
				c2.62,0.78,5.24,1.55,7.85,2.33c0,1.75,0,3.5,0,5.25c-2.62-0.65-5.24-1.29-7.85-1.94C130.46,231.95,130.46,230.07,130.46,228.19z
				 M138.32,226.46l-7.85-2.12v-5.64l7.85,2.52V226.46z M148.51,229.16l-5.01-1.35v-5.06l5.01,1.6V229.16z M148.53,238.21
				c-1.67-0.41-3.34-0.82-5.01-1.23c0-1.69,0-3.37,0-5.06c1.67,0.49,3.34,0.99,5.01,1.48C148.53,235.01,148.53,236.61,148.53,238.21
				z M148.54,247.27c-1.67-0.37-3.34-0.74-5.01-1.11c0-1.69,0-3.37,0-5.06c1.67,0.46,3.34,0.91,5.01,1.36
				C148.54,244.07,148.54,245.67,148.54,247.27z M148.56,256.33c-1.67-0.33-3.34-0.66-5.01-0.99c0-1.69,0-3.37,0-5.06
				c1.67,0.41,3.34,0.83,5.01,1.24C148.56,253.12,148.56,254.73,148.56,256.33z M148.58,265.39c-1.67-0.29-3.34-0.58-5.01-0.87
				c0-1.69,0-3.38,0-5.06c1.67,0.37,3.34,0.75,5.01,1.12C148.58,262.18,148.58,263.79,148.58,265.39z M148.59,274.45
				c-1.67-0.25-3.34-0.5-5.01-0.75c0-1.68,0-3.37,0-5.06c1.67,0.33,3.34,0.67,5.01,1C148.59,271.24,148.59,272.84,148.59,274.45z
				 M148.61,283.5c-1.67-0.21-3.34-0.42-5.01-0.63c0-1.68,0-3.37,0-5.05c1.67,0.29,3.34,0.59,5.01,0.88
				C148.61,280.3,148.61,281.9,148.61,283.5z M148.63,292.56c-1.67-0.17-3.34-0.34-5.01-0.51c0-1.69,0-3.37,0-5.06
				c1.67,0.25,3.34,0.51,5.01,0.76C148.63,289.35,148.63,290.96,148.63,292.56z M148.64,301.62c-1.67-0.13-3.34-0.26-5.01-0.39
				c0-1.69,0-3.37,0-5.06c1.67,0.21,3.34,0.43,5.01,0.64C148.64,298.41,148.64,300.01,148.64,301.62z M148.66,310.68
				c-1.67-0.09-3.34-0.18-5.01-0.27c0-1.69,0-3.37,0-5.06c1.67,0.17,3.34,0.35,5.01,0.52C148.66,307.47,148.66,309.08,148.66,310.68
				z M148.67,319.73c-1.67-0.05-3.34-0.1-5.01-0.15c0-1.69,0-3.37,0-5.06c1.67,0.13,3.34,0.27,5.01,0.4
				C148.67,316.53,148.67,318.13,148.67,319.73z M148.69,328.79c-1.67-0.01-3.34-0.02-5.01-0.03c0-1.69,0-3.38,0-5.06
				c1.67,0.09,3.34,0.19,5.01,0.28C148.69,325.58,148.69,327.19,148.69,328.79z M148.71,337.85c-1.67,0.03-3.34,0.06-5.01,0.09
				c0-1.69,0-3.37,0-5.06c1.67,0.05,3.34,0.11,5.01,0.16C148.71,334.64,148.71,336.24,148.71,337.85z M148.72,346.91
				c-1.67,0.07-3.34,0.14-5.01,0.21c0-1.69,0-3.37,0-5.06c1.67,0.01,3.34,0.03,5.01,0.04C148.72,343.7,148.72,345.3,148.72,346.91z
				 M148.74,355.96c-1.67,0.11-3.34,0.22-5.01,0.33c0-1.69,0-3.37,0-5.06c1.67-0.02,3.34-0.05,5.01-0.08
				C148.74,352.76,148.74,354.36,148.74,355.96z M148.76,365.02c-1.67,0.15-3.34,0.3-5.01,0.45c0-1.69,0-3.37,0-5.06
				c1.67-0.07,3.34-0.13,5.01-0.2C148.76,361.81,148.76,363.42,148.76,365.02z M148.77,374.08c-1.67,0.19-3.34,0.38-5.01,0.57
				c0-1.69,0-3.37,0-5.06c1.67-0.11,3.34-0.21,5.01-0.32C148.77,370.87,148.77,372.48,148.77,374.08z M148.79,383.14l-5.01,0.69
				v-5.06l5.01-0.44V383.14z M152.89,378.05l3.64-0.32v4.47l-3.64,0.5V378.05z M152.9,369.09c1.21-0.08,2.42-0.15,3.64-0.23
				c0,1.49,0,2.98,0,4.47c-1.21,0.14-2.42,0.27-3.64,0.42C152.9,372.19,152.9,370.64,152.9,369.09z M152.9,364.78
				c0-1.55,0-3.1,0-4.65c1.21-0.05,2.42-0.1,3.64-0.15c0,1.49,0,2.98,0,4.47C155.32,364.56,154.11,364.67,152.9,364.78z
				 M152.9,351.16c1.21-0.02,2.43-0.04,3.64-0.06c0,1.49,0,2.99,0,4.47c-1.21,0.08-2.42,0.16-3.64,0.24
				C152.9,354.27,152.9,352.72,152.9,351.16z M152.9,346.86c0-1.55,0-3.1,0-4.65c1.21,0.01,2.42,0.02,3.64,0.03
				c0,1.49,0,2.98,0,4.47C155.32,346.76,154.11,346.81,152.9,346.86z M152.9,333.24c1.21,0.04,2.43,0.08,3.64,0.12
				c0,1.49,0,2.98,0,4.47c-1.21,0.02-2.42,0.04-3.64,0.07C152.9,336.35,152.9,334.8,152.9,333.24z M152.9,328.94
				c0-1.55,0-3.1,0-4.65c1.21,0.07,2.42,0.13,3.64,0.2c0,1.49,0,2.98,0,4.47C155.33,328.95,154.11,328.95,152.9,328.94z
				 M152.9,315.32c1.21,0.1,2.42,0.2,3.64,0.29c0,1.49,0,2.98,0,4.47c-1.21-0.04-2.42-0.07-3.64-0.11
				C152.9,318.43,152.9,316.87,152.9,315.32z M152.9,306.36c1.21,0.13,2.42,0.25,3.64,0.38c0,1.49,0,2.98,0,4.47
				c-1.21-0.07-2.43-0.13-3.64-0.2C152.9,309.47,152.9,307.91,152.9,306.36z M152.9,297.4c1.21,0.16,2.42,0.31,3.64,0.47
				c0,1.49,0,2.98,0,4.47c-1.21-0.1-2.43-0.19-3.64-0.28C152.9,300.5,152.9,298.95,152.9,297.4z M152.9,288.44
				c1.21,0.18,2.42,0.37,3.64,0.55c0,1.49,0,2.98,0,4.47c-1.21-0.12-2.42-0.25-3.64-0.37C152.9,291.54,152.9,289.99,152.9,288.44z
				 M152.9,279.48c1.21,0.21,2.42,0.42,3.64,0.64c0,1.49,0,2.98,0,4.47c-1.21-0.15-2.43-0.31-3.64-0.46
				C152.9,282.58,152.9,281.03,152.9,279.48z M152.91,270.52c1.21,0.24,2.42,0.48,3.64,0.73c0,1.49,0,2.98,0,4.47
				c-1.21-0.18-2.42-0.36-3.64-0.55C152.91,273.62,152.91,272.07,152.91,270.52z M152.91,261.56c1.21,0.27,2.42,0.54,3.64,0.81
				c0,1.49,0,2.98,0,4.47c-1.21-0.21-2.42-0.42-3.64-0.63C152.91,264.66,152.91,263.11,152.91,261.56z M152.91,252.59
				c1.21,0.3,2.42,0.6,3.64,0.9c0,1.49,0,2.98,0,4.47c-1.21-0.24-2.42-0.48-3.64-0.72C152.91,255.7,152.91,254.14,152.91,252.59z
				 M152.91,248.28c0-1.55,0-3.1,0-4.65c1.21,0.33,2.42,0.66,3.64,0.99c0,1.49,0,2.98,0,4.47
				C155.33,248.82,154.12,248.56,152.91,248.28z M152.91,234.67c1.21,0.36,2.42,0.72,3.64,1.08c0,1.49,0,2.98,0,4.47
				c-1.21-0.3-2.43-0.6-3.64-0.9C152.91,237.77,152.91,236.22,152.91,234.67z M156.55,231.35l-3.64-0.98v-4.65l3.64,1.16V231.35z
				 M159.85,377.52l3.14-0.28v4.2l-3.14,0.43V377.52z M159.88,368.73c1.05-0.07,2.09-0.14,3.14-0.2c0,1.4,0,2.8,0,4.2
				c-1.05,0.12-2.09,0.24-3.14,0.36C159.88,371.63,159.88,370.18,159.88,368.73z M159.9,359.93c1.05-0.04,2.09-0.08,3.14-0.13
				c0,1.4,0,2.8,0,4.2c-1.05,0.1-2.09,0.19-3.14,0.28C159.9,362.83,159.9,361.38,159.9,359.93z M159.93,351.13
				c1.05-0.02,2.09-0.04,3.14-0.05c0,1.4,0,2.8,0,4.2c-1.05,0.07-2.09,0.14-3.14,0.21C159.93,354.04,159.93,352.59,159.93,351.13z
				 M159.95,342.34c1.05,0.01,2.09,0.02,3.14,0.02c0,1.4,0,2.8,0,4.2c-1.05,0.05-2.09,0.09-3.14,0.13
				C159.95,345.24,159.95,343.79,159.95,342.34z M159.97,333.54c1.05,0.04,2.09,0.07,3.14,0.1c0,1.4,0,2.8,0,4.2
				c-1.05,0.02-2.09,0.03-3.14,0.05C159.97,336.45,159.97,334.99,159.97,333.54z M160,324.74c1.05,0.06,2.09,0.12,3.14,0.18
				c0,1.4,0,2.8,0,4.2c-1.05-0.01-2.09-0.01-3.14-0.02C160,327.65,160,326.19,160,324.74z M160.02,315.95
				c1.05,0.08,2.09,0.16,3.14,0.25c0,1.4,0,2.8,0,4.2c-1.05-0.03-2.09-0.06-3.14-0.09C160.02,318.85,160.02,317.4,160.02,315.95z
				 M160.05,307.15c1.05,0.11,2.09,0.22,3.14,0.33c0,1.4,0,2.8,0,4.2c-1.05-0.05-2.09-0.11-3.14-0.17
				C160.05,310.06,160.05,308.6,160.05,307.15z M160.07,298.35c1.05,0.14,2.09,0.27,3.14,0.4c0,1.4,0,2.8,0,4.2
				c-1.05-0.08-2.09-0.17-3.14-0.25C160.07,301.26,160.07,299.81,160.07,298.35z M160.09,289.56c1.05,0.16,2.09,0.32,3.14,0.48
				c0,1.4,0,2.8,0,4.2c-1.05-0.11-2.09-0.22-3.14-0.32C160.09,292.46,160.09,291.01,160.09,289.56z M160.12,280.76
				c1.05,0.19,2.09,0.37,3.14,0.55c0,1.4,0,2.8,0,4.2c-1.05-0.13-2.09-0.26-3.14-0.4C160.12,283.67,160.12,282.21,160.12,280.76z
				 M160.14,271.97c1.05,0.21,2.09,0.42,3.14,0.63c0,1.4,0,2.8,0,4.2c-1.05-0.16-2.09-0.32-3.14-0.47
				C160.14,274.87,160.14,273.42,160.14,271.97z M160.16,263.17c1.05,0.24,2.09,0.47,3.14,0.7c0,1.4,0,2.8,0,4.2
				c-1.05-0.18-2.09-0.36-3.14-0.55C160.16,266.07,160.16,264.62,160.16,263.17z M160.19,254.37c1.05,0.26,2.09,0.52,3.14,0.78
				c0,1.4,0,2.8,0,4.2c-1.05-0.21-2.09-0.41-3.14-0.62C160.19,257.28,160.19,255.82,160.19,254.37z M160.21,245.58
				c1.05,0.28,2.09,0.57,3.14,0.85c0,1.4,0,2.8,0,4.2c-1.05-0.23-2.09-0.47-3.14-0.7C160.21,248.48,160.21,247.03,160.21,245.58z
				 M160.24,236.78c1.05,0.31,2.09,0.62,3.14,0.93c0,1.4,0,2.8,0,4.2c-1.05-0.26-2.09-0.51-3.14-0.77
				C160.24,239.68,160.24,238.23,160.24,236.78z M163.4,233.19l-3.14-0.85v-4.36l3.14,1.01V233.19z"/>
		</g>
		<g>
			<path class="st7" d="M374.79,244.66v140.79l18.3-4.41V250.68L374.79,244.66z M390.74,374.97l-13.39,3.64v-3.64l13.39-2.93V374.97
				z M390.74,366.17c-4.47,1.02-8.93,2.04-13.39,3.06c0-1.21,0-2.43,0-3.64c4.47-0.8,8.93-1.59,13.39-2.38
				C390.74,364.19,390.74,365.18,390.74,366.17z M390.74,357.37c-4.47,0.83-8.93,1.65-13.39,2.48c0-1.21,0-2.43,0-3.64
				c4.47-0.61,8.93-1.23,13.39-1.84C390.74,355.36,390.74,356.36,390.74,357.37z M390.74,348.56c-4.47,0.64-8.93,1.27-13.39,1.91
				c0-1.21,0-2.43,0-3.64c4.47-0.43,8.93-0.86,13.39-1.29C390.74,346.54,390.74,347.55,390.74,348.56z M390.74,339.76
				c-4.47,0.44-8.93,0.88-13.39,1.33c0-1.21,0-2.43,0-3.64c4.47-0.25,8.93-0.5,13.39-0.75
				C390.74,337.71,390.74,338.73,390.74,339.76z M390.74,330.95c-4.47,0.25-8.93,0.5-13.39,0.75c0-1.21,0-2.43,0-3.64
				c4.47-0.07,8.93-0.14,13.39-0.21C390.74,328.89,390.74,329.92,390.74,330.95z M390.74,322.15c-4.47,0.06-8.93,0.11-13.39,0.17
				c0-1.21,0-2.43,0-3.65c4.47,0.12,8.93,0.23,13.39,0.34C390.74,320.06,390.74,321.1,390.74,322.15z M390.74,313.34
				c-4.47-0.14-8.93-0.27-13.39-0.41c0-1.22,0-2.43,0-3.65c4.47,0.3,8.93,0.59,13.39,0.89
				C390.74,311.23,390.74,312.29,390.74,313.34z M390.74,304.54c-4.47-0.33-8.93-0.66-13.39-0.98c0-1.21,0-2.43,0-3.64
				c4.47,0.48,8.93,0.95,13.39,1.43C390.74,302.41,390.74,303.47,390.74,304.54z M390.74,295.73c-4.47-0.52-8.93-1.04-13.39-1.56
				c0-1.21,0-2.43,0-3.64c4.47,0.66,8.93,1.32,13.39,1.98C390.74,293.58,390.74,294.66,390.74,295.73z M390.74,286.93
				c-4.47-0.71-8.93-1.43-13.39-2.14c0-1.21,0-2.43,0-3.65c4.47,0.84,8.93,1.69,13.39,2.53
				C390.74,284.76,390.74,285.84,390.74,286.93z M390.74,278.13c-4.47-0.91-8.93-1.81-13.39-2.72c0-1.21,0-2.43,0-3.64
				c4.47,1.02,8.93,2.05,13.39,3.07C390.74,275.93,390.74,277.03,390.74,278.13z M390.74,269.32c-4.47-1.1-8.93-2.2-13.39-3.3
				c0-1.21,0-2.43,0-3.64c4.47,1.2,8.93,2.41,13.39,3.61C390.74,267.1,390.74,268.21,390.74,269.32z M390.74,260.52l-13.39-3.88V253
				l13.39,4.16V260.52z"/>
			<linearGradient id="SVGID_3_" gradientUnits="userSpaceOnUse" x1="355.7411" y1="232.5676" x2="355.7411" y2="410.226">
				<stop  offset="0" style="stop-color:#ED2A7B"/>
				<stop  offset="0.2399" style="stop-color:#DF2877"/>
				<stop  offset="0.6929" style="stop-color:#BA236C"/>
				<stop  offset="1" style="stop-color:#9D1F63"/>
			</linearGradient>
			<path class="st8" d="M338.17,380.03l35.14,5.34V244.86l-35.14,12.08V380.03z M367.24,378.36l-5.88-0.81v-3.93l5.88,0.52V378.36z
				 M367.24,371.26c-1.96-0.22-3.92-0.45-5.88-0.67c0-1.31,0-2.62,0-3.93c1.96,0.13,3.92,0.25,5.88,0.38
				C367.24,368.45,367.24,369.85,367.24,371.26z M367.24,364.16c-1.96-0.18-3.92-0.35-5.88-0.53c0-1.31,0-2.62,0-3.93
				c1.96,0.08,3.92,0.16,5.88,0.24C367.24,361.35,367.24,362.75,367.24,364.16z M367.24,357.06c-1.96-0.13-3.92-0.26-5.87-0.39
				c0-1.31,0-2.62,0-3.93c1.96,0.03,3.92,0.06,5.87,0.1C367.24,354.25,367.24,355.66,367.24,357.06z M367.24,349.96
				c-1.96-0.08-3.91-0.16-5.87-0.25c0-1.31,0-2.62,0-3.93c1.96-0.01,3.92-0.03,5.87-0.05C367.24,347.15,367.24,348.56,367.24,349.96
				z M367.24,342.86c-1.96-0.03-3.92-0.07-5.87-0.1c0-1.31,0-2.62,0-3.93c1.96-0.06,3.92-0.13,5.87-0.19
				C367.24,340.05,367.24,341.46,367.24,342.86z M367.24,335.76c-1.96,0.01-3.92,0.02-5.87,0.04c0-1.31,0-2.62,0-3.93
				c1.96-0.11,3.91-0.22,5.87-0.33C367.24,332.95,367.24,334.36,367.24,335.76z M367.24,328.67c-1.96,0.06-3.92,0.12-5.87,0.17
				c0-1.31,0-2.62,0-3.93c1.96-0.16,3.91-0.31,5.87-0.47C367.24,325.85,367.24,327.26,367.24,328.67z M367.23,321.57
				c-1.96,0.11-3.92,0.21-5.87,0.32c0-1.31,0-2.62,0-3.93c1.96-0.2,3.92-0.41,5.87-0.61C367.23,318.75,367.23,320.16,367.23,321.57z
				 M367.23,314.47c-1.96,0.15-3.91,0.31-5.87,0.46c0-1.31,0-2.62,0-3.93c1.96-0.25,3.92-0.5,5.87-0.75
				C367.23,311.65,367.23,313.06,367.23,314.47z M367.23,307.37c-1.96,0.2-3.92,0.4-5.87,0.6c0-1.31,0-2.62,0-3.93
				c1.96-0.3,3.91-0.6,5.87-0.89C367.23,304.55,367.23,305.96,367.23,307.37z M361.36,294.05c0-1.31,0-2.62,0-3.93
				c1.96-0.39,3.92-0.78,5.87-1.17c0,1.41,0,2.81,0,4.22C365.27,293.46,363.32,293.76,361.36,294.05z M367.23,300.27
				c-1.96,0.25-3.92,0.49-5.87,0.74c0-1.31,0-2.62,0-3.93c1.96-0.34,3.91-0.69,5.87-1.03C367.23,297.45,367.23,298.86,367.23,300.27
				z M367.23,286.07c-1.96,0.34-3.92,0.68-5.87,1.02c0-1.31,0-2.62,0-3.93c1.95-0.44,3.91-0.88,5.87-1.32
				C367.23,283.25,367.23,284.66,367.23,286.07z M367.23,278.97c-1.96,0.39-3.92,0.78-5.87,1.17c0-1.31,0-2.62,0-3.93
				c1.96-0.49,3.91-0.97,5.87-1.46C367.23,276.16,367.23,277.56,367.23,278.97z M367.23,271.87c-1.96,0.43-3.92,0.87-5.87,1.31
				c0-1.31,0-2.62,0-3.93c1.96-0.53,3.91-1.07,5.87-1.6C367.23,269.06,367.23,270.46,367.23,271.87z M367.23,264.77
				c-1.96,0.48-3.91,0.96-5.87,1.45c0-1.31,0-2.62,0-3.93c1.96-0.58,3.92-1.16,5.87-1.74C367.23,261.96,367.23,263.36,367.23,264.77
				z M361.35,255.33l5.88-1.88v4.22l-5.88,1.59V255.33z M353.73,257.68l3.74-1.2v3.78l-3.74,1.01V257.68z M353.72,264.45
				c1.25-0.37,2.5-0.74,3.74-1.11c0,1.26,0,2.52,0,3.78c-1.24,0.31-2.49,0.61-3.74,0.92C353.72,266.85,353.72,265.65,353.72,264.45z
				 M353.71,271.22c1.25-0.34,2.5-0.68,3.74-1.02c0,1.26,0,2.52,0,3.78c-1.25,0.28-2.5,0.55-3.74,0.83
				C353.71,273.62,353.71,272.42,353.71,271.22z M353.7,277.99c1.25-0.31,2.5-0.62,3.74-0.93c0,1.26,0,2.52,0,3.78
				c-1.25,0.25-2.5,0.49-3.74,0.74C353.7,280.39,353.7,279.19,353.7,277.99z M353.69,284.76c1.25-0.28,2.5-0.56,3.74-0.84
				c0,1.26,0,2.52,0,3.78c-1.25,0.22-2.5,0.43-3.74,0.65C353.69,287.16,353.69,285.96,353.69,284.76z M353.67,291.54
				c1.25-0.25,2.5-0.5,3.74-0.75c0,1.26,0,2.52,0,3.78c-1.25,0.19-2.49,0.37-3.74,0.56C353.67,293.93,353.67,292.74,353.67,291.54z
				 M353.66,298.31c1.25-0.22,2.5-0.44,3.74-0.66c0,1.26,0,2.52,0,3.78c-1.25,0.16-2.5,0.32-3.74,0.47
				C353.66,300.71,353.66,299.51,353.66,298.31z M353.65,305.08c1.25-0.19,2.5-0.38,3.74-0.57c0,1.26,0,2.52,0,3.78
				c-1.25,0.13-2.49,0.25-3.74,0.38C353.65,307.48,353.65,306.28,353.65,305.08z M353.64,311.85c1.25-0.16,2.5-0.32,3.74-0.48
				c0,1.26,0,2.52,0,3.78c-1.25,0.1-2.5,0.19-3.74,0.29C353.64,314.25,353.64,313.05,353.64,311.85z M353.63,318.63
				c1.25-0.13,2.49-0.26,3.74-0.39c0,1.26,0,2.52,0,3.78c-1.25,0.07-2.49,0.13-3.74,0.2C353.63,321.02,353.63,319.82,353.63,318.63z
				 M353.61,325.4c1.25-0.1,2.5-0.2,3.74-0.3c0,1.26,0,2.52,0,3.78c-1.25,0.04-2.5,0.07-3.74,0.11
				C353.61,327.79,353.61,326.6,353.61,325.4z M353.6,332.17c1.25-0.07,2.5-0.14,3.74-0.21c0,1.26,0,2.52,0,3.78
				c-1.25,0.01-2.5,0.01-3.74,0.02C353.6,334.57,353.6,333.37,353.6,332.17z M353.59,338.94c1.25-0.04,2.5-0.08,3.74-0.12
				c0,1.26,0,2.52,0,3.79c-1.25-0.02-2.5-0.05-3.74-0.07C353.59,341.34,353.59,340.14,353.59,338.94z M353.58,345.71
				c1.25-0.01,2.49-0.02,3.74-0.03c0,1.26,0,2.52,0,3.78c-1.25-0.05-2.49-0.11-3.74-0.16C353.58,348.11,353.58,346.91,353.58,345.71
				z M353.56,352.48c1.25,0.02,2.5,0.04,3.74,0.06c0,1.26,0,2.52,0,3.79c-1.25-0.08-2.5-0.16-3.74-0.25
				C353.56,354.88,353.56,353.68,353.56,352.48z M353.55,359.26c1.25,0.05,2.5,0.1,3.74,0.15c0,1.26,0,2.52,0,3.78
				c-1.25-0.11-2.5-0.23-3.74-0.34C353.55,361.65,353.55,360.45,353.55,359.26z M353.54,366.03c1.25,0.08,2.5,0.16,3.74,0.24
				c0,1.26,0,2.52,0,3.78c-1.25-0.14-2.5-0.28-3.74-0.43C353.54,368.43,353.54,367.22,353.54,366.03z M353.53,372.8l3.74,0.33v3.78
				l-3.74-0.52V372.8z M350.46,376.07l-2.72-0.38v-3.34l2.72,0.24V376.07z M350.46,369.37c-0.91-0.11-1.81-0.21-2.72-0.31
				c0-1.11,0-2.23,0-3.35c0.91,0.06,1.81,0.12,2.72,0.17C350.46,367.05,350.46,368.21,350.46,369.37z M347.74,362.43
				c0-1.11,0-2.23,0-3.34c0.91,0.04,1.81,0.07,2.72,0.11c0,1.16,0,2.32,0,3.48C349.55,362.59,348.64,362.51,347.74,362.43z
				 M350.46,355.97c-0.91-0.06-1.81-0.12-2.72-0.18c0-1.11,0-2.23,0-3.34c0.91,0.01,1.81,0.03,2.72,0.04
				C350.46,353.65,350.46,354.81,350.46,355.97z M347.74,349.16c0-1.12,0-2.23,0-3.35c0.91,0,1.81-0.01,2.72-0.02
				c0,1.16,0,2.32,0,3.48C349.55,349.23,348.64,349.2,347.74,349.16z M350.45,342.57c-0.91-0.02-1.81-0.03-2.72-0.05
				c0-1.11,0-2.23,0-3.34c0.91-0.03,1.81-0.06,2.72-0.09C350.45,340.25,350.45,341.41,350.45,342.57z M347.73,335.89
				c0-1.12,0-2.23,0-3.35c0.91-0.05,1.81-0.1,2.72-0.15c0,1.16,0,2.32,0,3.48C349.55,335.88,348.64,335.89,347.73,335.89z
				 M350.45,329.17c-0.91,0.03-1.81,0.06-2.72,0.08c0-1.12,0-2.23,0-3.34c0.91-0.07,1.81-0.15,2.72-0.22
				C350.45,326.85,350.45,328.02,350.45,329.17z M350.45,322.47c-0.91,0.05-1.81,0.1-2.72,0.15c0-1.12,0-2.23,0-3.35
				c0.91-0.1,1.81-0.19,2.72-0.28C350.45,320.15,350.45,321.31,350.45,322.47z M350.45,315.77c-0.9,0.07-1.81,0.14-2.72,0.21
				c0-1.11,0-2.23,0-3.34c0.91-0.12,1.81-0.23,2.72-0.35C350.45,313.45,350.45,314.62,350.45,315.77z M350.45,309.08
				c-0.9,0.09-1.81,0.19-2.72,0.28c0-1.12,0-2.23,0-3.35c0.91-0.14,1.81-0.28,2.72-0.41C350.45,306.75,350.45,307.92,350.45,309.08z
				 M350.45,302.37c-0.9,0.11-1.81,0.23-2.72,0.34c0-1.11,0-2.23,0-3.35c0.9-0.16,1.81-0.32,2.72-0.48
				C350.45,300.05,350.45,301.22,350.45,302.37z M350.45,295.68c-0.91,0.14-1.81,0.27-2.72,0.41c0-1.11,0-2.23,0-3.34
				c0.91-0.18,1.81-0.36,2.72-0.54C350.45,293.36,350.45,294.51,350.45,295.68z M350.45,288.97c-0.91,0.16-1.81,0.32-2.72,0.47
				c0-1.11,0-2.23,0-3.35c0.91-0.2,1.81-0.4,2.72-0.61C350.45,286.66,350.45,287.82,350.45,288.97z M350.45,282.27
				c-0.91,0.18-1.81,0.36-2.72,0.54c0-1.12,0-2.23,0-3.34c0.91-0.23,1.81-0.45,2.72-0.67C350.45,279.95,350.45,281.11,350.45,282.27
				z M347.73,276.18c0-1.11,0-2.23,0-3.34c0.91-0.25,1.81-0.49,2.72-0.74c0,1.16,0,2.32,0,3.48
				C349.54,275.78,348.64,275.98,347.73,276.18z M350.45,268.88c-0.91,0.22-1.81,0.45-2.72,0.67c0-1.12,0-2.23,0-3.34
				c0.91-0.27,1.81-0.54,2.72-0.8C350.45,266.56,350.45,267.72,350.45,268.88z M347.73,259.56l2.72-0.87v3.48l-2.72,0.74V259.56z
				 M345.25,375.46l-2.35-0.32v-3.14l2.35,0.21V375.46z M345.24,368.88c-0.78-0.09-1.56-0.18-2.35-0.27c0-1.05,0-2.09,0-3.14
				c0.78,0.05,1.56,0.1,2.35,0.15C345.24,366.71,345.24,367.79,345.24,368.88z M345.22,362.3c-0.78-0.07-1.57-0.14-2.35-0.21
				c0-1.05,0-2.09,0-3.14c0.78,0.03,1.56,0.06,2.35,0.09C345.22,360.13,345.22,361.22,345.22,362.3z M345.2,355.73
				c-0.78-0.05-1.57-0.11-2.35-0.16c0-1.05,0-2.1,0-3.14c0.78,0.01,1.56,0.03,2.35,0.04C345.2,353.56,345.2,354.64,345.2,355.73z
				 M345.18,349.15c-0.78-0.03-1.56-0.07-2.35-0.1c0-1.05,0-2.09,0-3.14c0.78-0.01,1.56-0.01,2.35-0.02
				C345.18,346.98,345.18,348.06,345.18,349.15z M345.16,342.57c-0.78-0.01-1.56-0.03-2.35-0.04c0-1.05,0-2.1,0-3.14
				c0.79-0.03,1.57-0.05,2.35-0.07C345.16,340.4,345.16,341.49,345.16,342.57z M345.15,336c-0.78,0-1.56,0.01-2.35,0.01
				c0-1.05,0-2.09,0-3.14c0.78-0.04,1.56-0.09,2.35-0.13C345.15,333.82,345.15,334.91,345.15,336z M345.13,329.42
				c-0.78,0.03-1.56,0.05-2.35,0.07c0-1.05,0-2.09,0-3.14c0.78-0.06,1.57-0.12,2.35-0.19C345.13,327.25,345.13,328.33,345.13,329.42
				z M345.11,322.84c-0.78,0.04-1.56,0.08-2.35,0.13c0-1.05,0-2.09,0-3.14c0.78-0.08,1.56-0.16,2.35-0.24
				C345.11,320.67,345.11,321.76,345.11,322.84z M345.09,316.26c-0.78,0.06-1.57,0.12-2.35,0.19c0-1.05,0-2.1,0-3.14
				c0.78-0.1,1.57-0.2,2.35-0.3C345.09,314.09,345.09,315.18,345.09,316.26z M345.08,309.69c-0.78,0.08-1.57,0.16-2.35,0.24
				c0-1.05,0-2.09,0-3.14c0.78-0.12,1.57-0.24,2.35-0.36C345.08,307.52,345.08,308.6,345.08,309.69z M345.06,303.11
				c-0.78,0.1-1.57,0.2-2.35,0.29c0-1.05,0-2.09,0-3.14c0.78-0.14,1.56-0.27,2.35-0.41C345.06,300.94,345.06,302.03,345.06,303.11z
				 M345.04,296.54c-0.78,0.12-1.57,0.23-2.35,0.35c0-1.05,0-2.1,0-3.14c0.78-0.16,1.56-0.32,2.35-0.47
				C345.04,294.36,345.04,295.45,345.04,296.54z M345.02,289.96c-0.78,0.14-1.57,0.27-2.35,0.41c0-1.05,0-2.09,0-3.14
				c0.78-0.18,1.57-0.35,2.35-0.53C345.02,287.79,345.02,288.87,345.02,289.96z M345,283.38c-0.78,0.16-1.56,0.31-2.35,0.47
				c0-1.05,0-2.09,0-3.14c0.78-0.19,1.56-0.39,2.35-0.58C345,281.21,345,282.3,345,283.38z M344.99,276.8
				c-0.78,0.18-1.56,0.35-2.35,0.52c0-1.05,0-2.09,0-3.14c0.78-0.22,1.57-0.43,2.35-0.64C344.99,274.63,344.99,275.72,344.99,276.8z
				 M344.97,270.23c-0.78,0.19-1.56,0.39-2.35,0.58c0-1.05,0-2.09,0-3.14c0.78-0.23,1.56-0.46,2.35-0.7
				C344.97,268.06,344.97,269.14,344.97,270.23z M342.6,261.15l2.35-0.75v3.25l-2.35,0.64V261.15z"/>
		</g>
	</g>
	<g>
		<path class="st9" d="M299.98,89.95v302.53l35.68-9.93v-280.5L299.98,89.95z M327.34,370.93l-20.23,5.43v-8.01l20.23-3.88V370.93z
			 M327.34,343.01c-6.74,1.42-13.49,2.85-20.23,4.27c0-2.67,0-5.34,0-8.01c6.74-0.94,13.48-1.88,20.23-2.82
			C327.34,338.63,327.34,340.82,327.34,343.01z M327.34,315.08c-6.74,1.04-13.49,2.07-20.23,3.11c0-2.67,0-5.34,0-8.01
			c6.74-0.59,13.48-1.17,20.23-1.76C327.34,310.64,327.34,312.86,327.34,315.08z M327.34,287.15c-6.74,0.65-13.49,1.3-20.23,1.95
			c0-2.67,0-5.34,0-8.01c6.74-0.23,13.48-0.47,20.23-0.7C327.34,282.65,327.34,284.9,327.34,287.15z M327.34,259.23
			c-6.74,0.26-13.49,0.52-20.23,0.78c0-2.67,0-5.34,0-8.01c6.74,0.12,13.48,0.24,20.23,0.36
			C327.34,254.65,327.34,256.94,327.34,259.23z M327.34,231.31c-6.74-0.12-13.49-0.25-20.23-0.37c0-2.67,0-5.34,0-8.01
			c6.74,0.47,13.48,0.94,20.23,1.41C327.34,226.66,327.34,228.98,327.34,231.31z M327.34,203.38c-6.74-0.51-13.49-1.03-20.23-1.54
			c0-2.67,0-5.34,0-8.01c6.74,0.83,13.48,1.65,20.23,2.47C327.34,198.67,327.34,201.02,327.34,203.38z M327.34,175.46
			c-6.74-0.9-13.49-1.8-20.23-2.7c0-2.67,0-5.34,0-8.01c6.74,1.18,13.48,2.35,20.23,3.53C327.34,170.67,327.34,173.07,327.34,175.46
			z M327.34,147.53c-6.74-1.29-13.49-2.57-20.23-3.86c0-2.67,0-5.34,0-8.01c6.74,1.53,13.48,3.06,20.23,4.59
			C327.34,142.68,327.34,145.11,327.34,147.53z M327.34,119.61l-20.23-5.02v-8.01l20.23,5.65V119.61z"/>
		<path class="st10" d="M257.97,139.36l16.65,5.23v245.25l22.6,2.65V88.95l-39.25,19.05V139.36z M289.44,365
			c-3.68-0.76-7.37-1.52-11.06-2.29c0-2.66,0-5.31,0-7.97c3.69,0.56,7.37,1.13,11.06,1.69C289.44,359.29,289.44,362.14,289.44,365z
			 M289.44,349.49c-3.68-0.64-7.37-1.28-11.06-1.93c0-2.66,0-5.31,0-7.97c3.69,0.45,7.37,0.89,11.06,1.33
			C289.44,343.79,289.44,346.64,289.44,349.49z M289.44,333.99c-3.68-0.52-7.37-1.04-11.06-1.56c0-2.66,0-5.31,0-7.97
			c3.69,0.32,7.37,0.65,11.06,0.97C289.44,328.28,289.44,331.14,289.44,333.99z M289.44,318.49c-3.68-0.4-7.37-0.81-11.06-1.21
			c0-2.66,0-5.31,0-7.97c3.69,0.21,7.37,0.41,11.06,0.61C289.44,312.78,289.44,315.64,289.44,318.49z M289.44,302.99
			c-3.68-0.28-7.37-0.56-11.06-0.85c0-2.65,0-5.31,0-7.97c3.69,0.09,7.37,0.17,11.06,0.25
			C289.44,297.28,289.44,300.14,289.44,302.99z M289.44,287.49c-3.68-0.16-7.37-0.32-11.06-0.49c0-2.65,0-5.31,0-7.97
			c3.69-0.04,7.37-0.07,11.06-0.1C289.44,281.78,289.44,284.63,289.44,287.49z M289.44,271.99c-3.68-0.04-7.37-0.09-11.06-0.13
			c0-2.65,0-5.31,0-7.97c3.69-0.15,7.37-0.31,11.06-0.47C289.44,266.28,289.44,269.13,289.44,271.99z M289.44,256.49
			c-3.68,0.08-7.37,0.15-11.06,0.23c0-2.66,0-5.32,0-7.97c3.69-0.28,7.37-0.55,11.06-0.83
			C289.44,250.78,289.44,253.63,289.44,256.49z M289.44,240.98c-3.68,0.2-7.37,0.4-11.06,0.59c0-2.66,0-5.31,0-7.97
			c3.69-0.4,7.37-0.79,11.06-1.19C289.44,235.28,289.44,238.13,289.44,240.98z M289.44,225.48c-3.68,0.31-7.37,0.63-11.06,0.95
			c0-2.66,0-5.31,0-7.97c3.69-0.51,7.37-1.03,11.06-1.54C289.44,219.77,289.44,222.63,289.44,225.48z M289.44,209.98
			c-3.68,0.44-7.37,0.87-11.06,1.31c0-2.65,0-5.31,0-7.97c3.69-0.63,7.37-1.27,11.06-1.9C289.44,204.27,289.44,207.13,289.44,209.98
			z M289.44,194.48c-3.68,0.56-7.37,1.11-11.06,1.67c0-2.66,0-5.31,0-7.97c3.69-0.76,7.37-1.51,11.06-2.27
			C289.44,188.77,289.44,191.62,289.44,194.48z M289.44,178.98c-3.68,0.68-7.37,1.35-11.06,2.03c0-2.66,0-5.31,0-7.97
			c3.69-0.88,7.37-1.75,11.06-2.63C289.44,173.27,289.44,176.12,289.44,178.98z M289.44,163.48c-3.68,0.8-7.37,1.59-11.06,2.39
			c0-2.66,0-5.31,0-7.97c3.69-0.99,7.37-1.99,11.06-2.99C289.44,157.77,289.44,160.62,289.44,163.48z M289.44,147.97
			c-3.68,0.92-7.37,1.83-11.06,2.75c0-2.66,0-5.31,0-7.97c3.69-1.11,7.37-2.23,11.06-3.35
			C289.44,142.27,289.44,145.12,289.44,147.97z M289.44,132.47c-3.68,1.04-7.37,2.07-11.06,3.11c0-2.66,0-5.31,0-7.97
			c3.69-1.23,7.37-2.47,11.06-3.7C289.44,126.77,289.44,129.62,289.44,132.47z M278.38,112.47l11.06-4.07v8.56l-11.06,3.47V112.47z
			 M278.38,369.88l11.06,2.05v8.56l-11.06-2.64V369.88z M271.56,136.97c-2.86,0.91-5.71,1.82-8.57,2.73c0-2.06,0-4.12,0-6.18
			c2.86-1.07,5.72-2.13,8.57-3.19C271.56,132.54,271.56,134.76,271.56,136.97z M262.98,118.88l8.58-3.47v6.64l-8.58,3.01V118.88z"/>
	</g>
	<path class="st11" d="M236.37,397.93l36.87-8.19V147.56l-36.87-11.18V397.93z"/>
	<g>
		<path class="st12" d="M95.88,214.99v174.36l24.47,5.9v-188.3L95.88,214.99z M99.02,377.31l17.92,3.92v4.87l-17.92-4.86V377.31z
			 M99.02,365.49c5.97,1.06,11.94,2.12,17.92,3.19c0,1.62,0,3.25,0,4.87c-5.97-1.36-11.94-2.73-17.92-4.09
			C99.02,368.13,99.02,366.81,99.02,365.49z M99.02,353.67c5.97,0.82,11.94,1.64,17.92,2.46c0,1.63,0,3.25,0,4.87
			c-5.97-1.11-11.94-2.21-17.92-3.32C99.02,356.34,99.02,355.01,99.02,353.67z M99.02,341.85c5.97,0.58,11.94,1.15,17.92,1.73
			c0,1.62,0,3.25,0,4.88c-5.97-0.85-11.94-1.7-17.92-2.55C99.02,344.55,99.02,343.2,99.02,341.85z M99.02,330.03
			c5.97,0.34,11.94,0.67,17.92,1c0,1.63,0,3.25,0,4.87c-5.97-0.59-11.94-1.18-17.92-1.77C99.02,332.76,99.02,331.39,99.02,330.03z
			 M99.02,318.21c5.97,0.09,11.94,0.18,17.92,0.27c0,1.62,0,3.25,0,4.87c-5.97-0.33-11.94-0.66-17.92-1
			C99.02,320.97,99.02,319.59,99.02,318.21z M99.02,306.39c5.97-0.15,11.94-0.31,17.92-0.46c0,1.62,0,3.25,0,4.87
			c-5.97-0.07-11.94-0.15-17.92-0.23C99.02,309.18,99.02,307.79,99.02,306.39z M99.02,294.57c5.97-0.4,11.94-0.79,17.92-1.19
			c0,1.62,0,3.25,0,4.88c-5.97,0.18-11.94,0.36-17.92,0.55C99.02,297.39,99.02,295.98,99.02,294.57z M99.02,282.75
			c5.97-0.64,11.94-1.28,17.92-1.92c0,1.62,0,3.25,0,4.87c-5.97,0.44-11.94,0.88-17.92,1.32C99.02,285.6,99.02,284.18,99.02,282.75z
			 M99.02,270.93c5.97-0.88,11.94-1.77,17.92-2.65c0,1.63,0,3.25,0,4.88c-5.97,0.7-11.94,1.4-17.92,2.09
			C99.02,273.81,99.02,272.37,99.02,270.93z M99.02,259.11c5.97-1.12,11.94-2.25,17.92-3.38c0,1.63,0,3.25,0,4.88
			c-5.97,0.96-11.94,1.91-17.92,2.87C99.02,262.02,99.02,260.57,99.02,259.11z M99.02,247.29c5.97-1.37,11.94-2.74,17.92-4.11
			c0,1.63,0,3.25,0,4.87c-5.97,1.21-11.94,2.43-17.92,3.64C99.02,250.23,99.02,248.76,99.02,247.29z M99.02,235.47
			c5.97-1.61,11.94-3.23,17.92-4.83c0,1.62,0,3.25,0,4.87c-5.97,1.47-11.94,2.94-17.92,4.41C99.02,238.44,99.02,236.96,99.02,235.47
			z M99.02,223.65l17.92-5.57v4.88l-17.92,5.19V223.65z"/>
		<path class="st13" d="M169.33,223.36l-47-16.16v187.93l47-7.14V223.36z M130.44,380.12l7.86-0.69v5.26l-7.86,1.08V380.12z
			 M130.45,370.62c2.62-0.17,5.24-0.34,7.86-0.51c0,1.75,0,3.5,0,5.26c-2.62,0.3-5.24,0.6-7.86,0.89
			C130.45,374.39,130.45,372.5,130.45,370.62z M130.45,361.13c2.62-0.11,5.24-0.21,7.86-0.32c0,1.75,0,3.51,0,5.26
			c-2.62,0.23-5.24,0.47-7.86,0.71C130.45,364.89,130.45,363.01,130.45,361.13z M130.45,351.63c2.62-0.04,5.24-0.09,7.86-0.13
			c0,1.75,0,3.5,0,5.26c-2.62,0.17-5.24,0.35-7.86,0.52C130.45,355.4,130.45,353.51,130.45,351.63z M130.45,342.14
			c2.62,0.02,5.24,0.04,7.86,0.06c0,1.75,0,3.5,0,5.25c-2.62,0.11-5.24,0.22-7.86,0.33C130.45,345.9,130.45,344.02,130.45,342.14z
			 M130.45,332.64c2.62,0.08,5.24,0.17,7.86,0.25c0,1.75,0,3.5,0,5.26c-2.62,0.04-5.24,0.09-7.86,0.14
			C130.45,336.4,130.45,334.52,130.45,332.64z M130.45,323.15c2.62,0.15,5.24,0.29,7.86,0.44c0,1.75,0,3.5,0,5.25
			c-2.62-0.02-5.24-0.03-7.86-0.05C130.45,326.91,130.45,325.03,130.45,323.15z M130.45,313.65c2.62,0.21,5.24,0.42,7.86,0.63
			c0,1.75,0,3.5,0,5.25c-2.62-0.08-5.24-0.16-7.86-0.24C130.45,317.41,130.45,315.53,130.45,313.65z M130.45,304.15
			c2.62,0.27,5.24,0.55,7.86,0.82c0,1.75,0,3.5,0,5.26c-2.62-0.14-5.24-0.28-7.86-0.43C130.45,307.92,130.45,306.04,130.45,304.15z
			 M130.46,294.66c2.62,0.33,5.24,0.67,7.86,1c0,1.75,0,3.5,0,5.25c-2.62-0.2-5.24-0.41-7.86-0.61
			C130.46,298.42,130.46,296.54,130.46,294.66z M130.46,285.17c2.62,0.4,5.24,0.79,7.86,1.19c0,1.75,0,3.5,0,5.25
			c-2.62-0.27-5.24-0.54-7.86-0.8C130.46,288.93,130.46,287.04,130.46,285.17z M130.46,271.82c0-1.88,0-3.76,0-5.64
			c2.62,0.53,5.24,1.05,7.86,1.57c0,1.75,0,3.5,0,5.25C135.7,272.6,133.08,272.21,130.46,271.82z M130.46,275.67
			c2.62,0.46,5.24,0.92,7.86,1.38c0,1.75,0,3.5,0,5.25c-2.62-0.33-5.24-0.66-7.86-0.99C130.46,279.43,130.46,277.55,130.46,275.67z
			 M130.46,256.68c2.62,0.59,5.24,1.17,7.86,1.76c0,1.75,0,3.5,0,5.25c-2.62-0.46-5.24-0.91-7.86-1.37
			C130.46,260.44,130.46,258.56,130.46,256.68z M130.46,247.18c2.62,0.65,5.24,1.3,7.86,1.95c0,1.75,0,3.5,0,5.25
			c-2.62-0.52-5.24-1.04-7.86-1.56C130.46,250.95,130.46,249.06,130.46,247.18z M130.46,237.69c2.62,0.71,5.24,1.43,7.85,2.14
			c0,1.75,0,3.5,0,5.25c-2.62-0.58-5.24-1.17-7.85-1.75C130.46,241.45,130.46,239.57,130.46,237.69z M130.46,228.19
			c2.62,0.78,5.24,1.55,7.85,2.33c0,1.75,0,3.5,0,5.25c-2.62-0.65-5.24-1.29-7.85-1.94C130.46,231.95,130.46,230.07,130.46,228.19z
			 M138.32,226.46l-7.85-2.12v-5.64l7.85,2.52V226.46z M148.51,229.16l-5.01-1.35v-5.06l5.01,1.6V229.16z M148.53,238.21
			c-1.67-0.41-3.34-0.82-5.01-1.23c0-1.69,0-3.37,0-5.06c1.67,0.49,3.34,0.99,5.01,1.48C148.53,235.01,148.53,236.61,148.53,238.21z
			 M148.54,247.27c-1.67-0.37-3.34-0.74-5.01-1.11c0-1.69,0-3.37,0-5.06c1.67,0.46,3.34,0.91,5.01,1.36
			C148.54,244.07,148.54,245.67,148.54,247.27z M148.56,256.33c-1.67-0.33-3.34-0.66-5.01-0.99c0-1.69,0-3.37,0-5.06
			c1.67,0.41,3.34,0.83,5.01,1.24C148.56,253.12,148.56,254.73,148.56,256.33z M148.58,265.39c-1.67-0.29-3.34-0.58-5.01-0.87
			c0-1.69,0-3.38,0-5.06c1.67,0.37,3.34,0.75,5.01,1.12C148.58,262.18,148.58,263.79,148.58,265.39z M148.59,274.45
			c-1.67-0.25-3.34-0.5-5.01-0.75c0-1.68,0-3.37,0-5.06c1.67,0.33,3.34,0.67,5.01,1C148.59,271.24,148.59,272.84,148.59,274.45z
			 M148.61,283.5c-1.67-0.21-3.34-0.42-5.01-0.63c0-1.68,0-3.37,0-5.05c1.67,0.29,3.34,0.59,5.01,0.88
			C148.61,280.3,148.61,281.9,148.61,283.5z M148.63,292.56c-1.67-0.17-3.34-0.34-5.01-0.51c0-1.69,0-3.37,0-5.06
			c1.67,0.25,3.34,0.51,5.01,0.76C148.63,289.35,148.63,290.96,148.63,292.56z M148.64,301.62c-1.67-0.13-3.34-0.26-5.01-0.39
			c0-1.69,0-3.37,0-5.06c1.67,0.21,3.34,0.43,5.01,0.64C148.64,298.41,148.64,300.01,148.64,301.62z M148.66,310.68
			c-1.67-0.09-3.34-0.18-5.01-0.27c0-1.69,0-3.37,0-5.06c1.67,0.17,3.34,0.35,5.01,0.52C148.66,307.47,148.66,309.08,148.66,310.68z
			 M148.67,319.73c-1.67-0.05-3.34-0.1-5.01-0.15c0-1.69,0-3.37,0-5.06c1.67,0.13,3.34,0.27,5.01,0.4
			C148.67,316.53,148.67,318.13,148.67,319.73z M148.69,328.79c-1.67-0.01-3.34-0.02-5.01-0.03c0-1.69,0-3.38,0-5.06
			c1.67,0.09,3.34,0.19,5.01,0.28C148.69,325.58,148.69,327.19,148.69,328.79z M148.71,337.85c-1.67,0.03-3.34,0.06-5.01,0.09
			c0-1.69,0-3.37,0-5.06c1.67,0.05,3.34,0.11,5.01,0.16C148.71,334.64,148.71,336.24,148.71,337.85z M148.72,346.91
			c-1.67,0.07-3.34,0.14-5.01,0.21c0-1.69,0-3.37,0-5.06c1.67,0.01,3.34,0.03,5.01,0.04C148.72,343.7,148.72,345.3,148.72,346.91z
			 M148.74,355.96c-1.67,0.11-3.34,0.22-5.01,0.33c0-1.69,0-3.37,0-5.06c1.67-0.02,3.34-0.05,5.01-0.08
			C148.74,352.76,148.74,354.36,148.74,355.96z M148.76,365.02c-1.67,0.15-3.34,0.3-5.01,0.45c0-1.69,0-3.37,0-5.06
			c1.67-0.07,3.34-0.13,5.01-0.2C148.76,361.81,148.76,363.42,148.76,365.02z M148.77,374.08c-1.67,0.19-3.34,0.38-5.01,0.57
			c0-1.69,0-3.37,0-5.06c1.67-0.11,3.34-0.21,5.01-0.32C148.77,370.87,148.77,372.48,148.77,374.08z M148.79,383.14l-5.01,0.69
			v-5.06l5.01-0.44V383.14z M152.89,378.05l3.64-0.32v4.47l-3.64,0.5V378.05z M152.9,369.09c1.21-0.08,2.42-0.15,3.64-0.23
			c0,1.49,0,2.98,0,4.47c-1.21,0.14-2.42,0.27-3.64,0.42C152.9,372.19,152.9,370.64,152.9,369.09z M152.9,364.78
			c0-1.55,0-3.1,0-4.65c1.21-0.05,2.42-0.1,3.64-0.15c0,1.49,0,2.98,0,4.47C155.32,364.56,154.11,364.67,152.9,364.78z
			 M152.9,351.16c1.21-0.02,2.43-0.04,3.64-0.06c0,1.49,0,2.99,0,4.47c-1.21,0.08-2.42,0.16-3.64,0.24
			C152.9,354.27,152.9,352.72,152.9,351.16z M152.9,346.86c0-1.55,0-3.1,0-4.65c1.21,0.01,2.42,0.02,3.64,0.03c0,1.49,0,2.98,0,4.47
			C155.32,346.76,154.11,346.81,152.9,346.86z M152.9,333.24c1.21,0.04,2.43,0.08,3.64,0.12c0,1.49,0,2.98,0,4.47
			c-1.21,0.02-2.42,0.04-3.64,0.07C152.9,336.35,152.9,334.8,152.9,333.24z M152.9,328.94c0-1.55,0-3.1,0-4.65
			c1.21,0.07,2.42,0.13,3.64,0.2c0,1.49,0,2.98,0,4.47C155.33,328.95,154.11,328.95,152.9,328.94z M152.9,315.32
			c1.21,0.1,2.42,0.2,3.64,0.29c0,1.49,0,2.98,0,4.47c-1.21-0.04-2.42-0.07-3.64-0.11C152.9,318.43,152.9,316.87,152.9,315.32z
			 M152.9,306.36c1.21,0.13,2.42,0.25,3.64,0.38c0,1.49,0,2.98,0,4.47c-1.21-0.07-2.43-0.13-3.64-0.2
			C152.9,309.47,152.9,307.91,152.9,306.36z M152.9,297.4c1.21,0.16,2.42,0.31,3.64,0.47c0,1.49,0,2.98,0,4.47
			c-1.21-0.1-2.43-0.19-3.64-0.28C152.9,300.5,152.9,298.95,152.9,297.4z M152.9,288.44c1.21,0.18,2.42,0.37,3.64,0.55
			c0,1.49,0,2.98,0,4.47c-1.21-0.12-2.42-0.25-3.64-0.37C152.9,291.54,152.9,289.99,152.9,288.44z M152.9,279.48
			c1.21,0.21,2.42,0.42,3.64,0.64c0,1.49,0,2.98,0,4.47c-1.21-0.15-2.43-0.31-3.64-0.46C152.9,282.58,152.9,281.03,152.9,279.48z
			 M152.91,270.52c1.21,0.24,2.42,0.48,3.64,0.73c0,1.49,0,2.98,0,4.47c-1.21-0.18-2.42-0.36-3.64-0.55
			C152.91,273.62,152.91,272.07,152.91,270.52z M152.91,261.56c1.21,0.27,2.42,0.54,3.64,0.81c0,1.49,0,2.98,0,4.47
			c-1.21-0.21-2.42-0.42-3.64-0.63C152.91,264.66,152.91,263.11,152.91,261.56z M152.91,252.59c1.21,0.3,2.42,0.6,3.64,0.9
			c0,1.49,0,2.98,0,4.47c-1.21-0.24-2.42-0.48-3.64-0.72C152.91,255.7,152.91,254.14,152.91,252.59z M152.91,248.28
			c0-1.55,0-3.1,0-4.65c1.21,0.33,2.42,0.66,3.64,0.99c0,1.49,0,2.98,0,4.47C155.33,248.82,154.12,248.56,152.91,248.28z
			 M152.91,234.67c1.21,0.36,2.42,0.72,3.64,1.08c0,1.49,0,2.98,0,4.47c-1.21-0.3-2.43-0.6-3.64-0.9
			C152.91,237.77,152.91,236.22,152.91,234.67z M156.55,231.35l-3.64-0.98v-4.65l3.64,1.16V231.35z M159.85,377.52l3.14-0.28v4.2
			l-3.14,0.43V377.52z M159.88,368.73c1.05-0.07,2.09-0.14,3.14-0.2c0,1.4,0,2.8,0,4.2c-1.05,0.12-2.09,0.24-3.14,0.36
			C159.88,371.63,159.88,370.18,159.88,368.73z M159.9,359.93c1.05-0.04,2.09-0.08,3.14-0.13c0,1.4,0,2.8,0,4.2
			c-1.05,0.1-2.09,0.19-3.14,0.28C159.9,362.83,159.9,361.38,159.9,359.93z M159.93,351.13c1.05-0.02,2.09-0.04,3.14-0.05
			c0,1.4,0,2.8,0,4.2c-1.05,0.07-2.09,0.14-3.14,0.21C159.93,354.04,159.93,352.59,159.93,351.13z M159.95,342.34
			c1.05,0.01,2.09,0.02,3.14,0.02c0,1.4,0,2.8,0,4.2c-1.05,0.05-2.09,0.09-3.14,0.13C159.95,345.24,159.95,343.79,159.95,342.34z
			 M159.97,333.54c1.05,0.04,2.09,0.07,3.14,0.1c0,1.4,0,2.8,0,4.2c-1.05,0.02-2.09,0.03-3.14,0.05
			C159.97,336.45,159.97,334.99,159.97,333.54z M160,324.74c1.05,0.06,2.09,0.12,3.14,0.18c0,1.4,0,2.8,0,4.2
			c-1.05-0.01-2.09-0.01-3.14-0.02C160,327.65,160,326.19,160,324.74z M160.02,315.95c1.05,0.08,2.09,0.16,3.14,0.25
			c0,1.4,0,2.8,0,4.2c-1.05-0.03-2.09-0.06-3.14-0.09C160.02,318.85,160.02,317.4,160.02,315.95z M160.05,307.15
			c1.05,0.11,2.09,0.22,3.14,0.33c0,1.4,0,2.8,0,4.2c-1.05-0.05-2.09-0.11-3.14-0.17C160.05,310.06,160.05,308.6,160.05,307.15z
			 M160.07,298.35c1.05,0.14,2.09,0.27,3.14,0.4c0,1.4,0,2.8,0,4.2c-1.05-0.08-2.09-0.17-3.14-0.25
			C160.07,301.26,160.07,299.81,160.07,298.35z M160.09,289.56c1.05,0.16,2.09,0.32,3.14,0.48c0,1.4,0,2.8,0,4.2
			c-1.05-0.11-2.09-0.22-3.14-0.32C160.09,292.46,160.09,291.01,160.09,289.56z M160.12,280.76c1.05,0.19,2.09,0.37,3.14,0.55
			c0,1.4,0,2.8,0,4.2c-1.05-0.13-2.09-0.26-3.14-0.4C160.12,283.67,160.12,282.21,160.12,280.76z M160.14,271.97
			c1.05,0.21,2.09,0.42,3.14,0.63c0,1.4,0,2.8,0,4.2c-1.05-0.16-2.09-0.32-3.14-0.47C160.14,274.87,160.14,273.42,160.14,271.97z
			 M160.16,263.17c1.05,0.24,2.09,0.47,3.14,0.7c0,1.4,0,2.8,0,4.2c-1.05-0.18-2.09-0.36-3.14-0.55
			C160.16,266.07,160.16,264.62,160.16,263.17z M160.19,254.37c1.05,0.26,2.09,0.52,3.14,0.78c0,1.4,0,2.8,0,4.2
			c-1.05-0.21-2.09-0.41-3.14-0.62C160.19,257.28,160.19,255.82,160.19,254.37z M160.21,245.58c1.05,0.28,2.09,0.57,3.14,0.85
			c0,1.4,0,2.8,0,4.2c-1.05-0.23-2.09-0.47-3.14-0.7C160.21,248.48,160.21,247.03,160.21,245.58z M160.24,236.78
			c1.05,0.31,2.09,0.62,3.14,0.93c0,1.4,0,2.8,0,4.2c-1.05-0.26-2.09-0.51-3.14-0.77C160.24,239.68,160.24,238.23,160.24,236.78z
			 M163.4,233.19l-3.14-0.85v-4.36l3.14,1.01V233.19z"/>
	</g>
	<g>
		<path class="st11" d="M373.31,244.7v142.32l19.78-4.4V250.71L373.31,244.7z"/>
		<path class="st4" d="M338.17,382.15l35.14,5.34V244.86l-35.14,12.08V382.15z M367.24,378.36l-5.88-0.81v-3.93l5.88,0.52V378.36z
			 M367.24,371.26c-1.96-0.22-3.92-0.45-5.88-0.67c0-1.31,0-2.62,0-3.93c1.96,0.13,3.92,0.25,5.88,0.38
			C367.24,368.45,367.24,369.85,367.24,371.26z M367.24,364.16c-1.96-0.18-3.92-0.35-5.88-0.53c0-1.31,0-2.62,0-3.93
			c1.96,0.08,3.92,0.16,5.88,0.24C367.24,361.35,367.24,362.75,367.24,364.16z M367.24,357.06c-1.96-0.13-3.92-0.26-5.87-0.39
			c0-1.31,0-2.62,0-3.93c1.96,0.03,3.92,0.06,5.87,0.1C367.24,354.25,367.24,355.66,367.24,357.06z M367.24,349.96
			c-1.96-0.08-3.91-0.16-5.87-0.25c0-1.31,0-2.62,0-3.93c1.96-0.01,3.92-0.03,5.87-0.05C367.24,347.15,367.24,348.56,367.24,349.96z
			 M367.24,342.86c-1.96-0.03-3.92-0.07-5.87-0.1c0-1.31,0-2.62,0-3.93c1.96-0.06,3.92-0.13,5.87-0.19
			C367.24,340.05,367.24,341.46,367.24,342.86z M367.24,335.76c-1.96,0.01-3.92,0.02-5.87,0.04c0-1.31,0-2.62,0-3.93
			c1.96-0.11,3.91-0.22,5.87-0.33C367.24,332.95,367.24,334.36,367.24,335.76z M367.24,328.67c-1.96,0.06-3.92,0.12-5.87,0.17
			c0-1.31,0-2.62,0-3.93c1.96-0.16,3.91-0.31,5.87-0.47C367.24,325.85,367.24,327.26,367.24,328.67z M367.23,321.57
			c-1.96,0.11-3.92,0.21-5.87,0.32c0-1.31,0-2.62,0-3.93c1.96-0.2,3.92-0.41,5.87-0.61C367.23,318.75,367.23,320.16,367.23,321.57z
			 M367.23,314.47c-1.96,0.15-3.91,0.31-5.87,0.46c0-1.31,0-2.62,0-3.93c1.96-0.25,3.92-0.5,5.87-0.75
			C367.23,311.65,367.23,313.06,367.23,314.47z M367.23,307.37c-1.96,0.2-3.92,0.4-5.87,0.6c0-1.31,0-2.62,0-3.93
			c1.96-0.3,3.91-0.6,5.87-0.89C367.23,304.55,367.23,305.96,367.23,307.37z M361.36,294.05c0-1.31,0-2.62,0-3.93
			c1.96-0.39,3.92-0.78,5.87-1.17c0,1.41,0,2.81,0,4.22C365.27,293.46,363.32,293.76,361.36,294.05z M367.23,300.27
			c-1.96,0.25-3.92,0.49-5.87,0.74c0-1.31,0-2.62,0-3.93c1.96-0.34,3.91-0.69,5.87-1.03C367.23,297.45,367.23,298.86,367.23,300.27z
			 M367.23,286.07c-1.96,0.34-3.92,0.68-5.87,1.02c0-1.31,0-2.62,0-3.93c1.95-0.44,3.91-0.88,5.87-1.32
			C367.23,283.25,367.23,284.66,367.23,286.07z M367.23,278.97c-1.96,0.39-3.92,0.78-5.87,1.17c0-1.31,0-2.62,0-3.93
			c1.96-0.49,3.91-0.97,5.87-1.46C367.23,276.16,367.23,277.56,367.23,278.97z M367.23,271.87c-1.96,0.43-3.92,0.87-5.87,1.31
			c0-1.31,0-2.62,0-3.93c1.96-0.53,3.91-1.07,5.87-1.6C367.23,269.06,367.23,270.46,367.23,271.87z M367.23,264.77
			c-1.96,0.48-3.91,0.96-5.87,1.45c0-1.31,0-2.62,0-3.93c1.96-0.58,3.92-1.16,5.87-1.74C367.23,261.96,367.23,263.36,367.23,264.77z
			 M361.35,255.33l5.88-1.88v4.22l-5.88,1.59V255.33z M353.73,257.68l3.74-1.2v3.78l-3.74,1.01V257.68z M353.72,264.45
			c1.25-0.37,2.5-0.74,3.74-1.11c0,1.26,0,2.52,0,3.78c-1.24,0.31-2.49,0.61-3.74,0.92C353.72,266.85,353.72,265.65,353.72,264.45z
			 M353.71,271.22c1.25-0.34,2.5-0.68,3.74-1.02c0,1.26,0,2.52,0,3.78c-1.25,0.28-2.5,0.55-3.74,0.83
			C353.71,273.62,353.71,272.42,353.71,271.22z M353.7,277.99c1.25-0.31,2.5-0.62,3.74-0.93c0,1.26,0,2.52,0,3.78
			c-1.25,0.25-2.5,0.49-3.74,0.74C353.7,280.39,353.7,279.19,353.7,277.99z M353.69,284.76c1.25-0.28,2.5-0.56,3.74-0.84
			c0,1.26,0,2.52,0,3.78c-1.25,0.22-2.5,0.43-3.74,0.65C353.69,287.16,353.69,285.96,353.69,284.76z M353.67,291.54
			c1.25-0.25,2.5-0.5,3.74-0.75c0,1.26,0,2.52,0,3.78c-1.25,0.19-2.49,0.37-3.74,0.56C353.67,293.93,353.67,292.74,353.67,291.54z
			 M353.66,298.31c1.25-0.22,2.5-0.44,3.74-0.66c0,1.26,0,2.52,0,3.78c-1.25,0.16-2.5,0.32-3.74,0.47
			C353.66,300.71,353.66,299.51,353.66,298.31z M353.65,305.08c1.25-0.19,2.5-0.38,3.74-0.57c0,1.26,0,2.52,0,3.78
			c-1.25,0.13-2.49,0.25-3.74,0.38C353.65,307.48,353.65,306.28,353.65,305.08z M353.64,311.85c1.25-0.16,2.5-0.32,3.74-0.48
			c0,1.26,0,2.52,0,3.78c-1.25,0.1-2.5,0.19-3.74,0.29C353.64,314.25,353.64,313.05,353.64,311.85z M353.63,318.63
			c1.25-0.13,2.49-0.26,3.74-0.39c0,1.26,0,2.52,0,3.78c-1.25,0.07-2.49,0.13-3.74,0.2C353.63,321.02,353.63,319.82,353.63,318.63z
			 M353.61,325.4c1.25-0.1,2.5-0.2,3.74-0.3c0,1.26,0,2.52,0,3.78c-1.25,0.04-2.5,0.07-3.74,0.11
			C353.61,327.79,353.61,326.6,353.61,325.4z M353.6,332.17c1.25-0.07,2.5-0.14,3.74-0.21c0,1.26,0,2.52,0,3.78
			c-1.25,0.01-2.5,0.01-3.74,0.02C353.6,334.57,353.6,333.37,353.6,332.17z M353.59,338.94c1.25-0.04,2.5-0.08,3.74-0.12
			c0,1.26,0,2.52,0,3.79c-1.25-0.02-2.5-0.05-3.74-0.07C353.59,341.34,353.59,340.14,353.59,338.94z M353.58,345.71
			c1.25-0.01,2.49-0.02,3.74-0.03c0,1.26,0,2.52,0,3.78c-1.25-0.05-2.49-0.11-3.74-0.16C353.58,348.11,353.58,346.91,353.58,345.71z
			 M353.56,352.48c1.25,0.02,2.5,0.04,3.74,0.06c0,1.26,0,2.52,0,3.79c-1.25-0.08-2.5-0.16-3.74-0.25
			C353.56,354.88,353.56,353.68,353.56,352.48z M353.55,359.26c1.25,0.05,2.5,0.1,3.74,0.15c0,1.26,0,2.52,0,3.78
			c-1.25-0.11-2.5-0.23-3.74-0.34C353.55,361.65,353.55,360.45,353.55,359.26z M353.54,366.03c1.25,0.08,2.5,0.16,3.74,0.24
			c0,1.26,0,2.52,0,3.78c-1.25-0.14-2.5-0.28-3.74-0.43C353.54,368.43,353.54,367.22,353.54,366.03z M353.53,372.8l3.74,0.33v3.78
			l-3.74-0.52V372.8z M350.46,376.07l-2.72-0.38v-3.34l2.72,0.24V376.07z M350.46,369.37c-0.91-0.11-1.81-0.21-2.72-0.31
			c0-1.11,0-2.23,0-3.35c0.91,0.06,1.81,0.12,2.72,0.17C350.46,367.05,350.46,368.21,350.46,369.37z M347.74,362.43
			c0-1.11,0-2.23,0-3.34c0.91,0.04,1.81,0.07,2.72,0.11c0,1.16,0,2.32,0,3.48C349.55,362.59,348.64,362.51,347.74,362.43z
			 M350.46,355.97c-0.91-0.06-1.81-0.12-2.72-0.18c0-1.11,0-2.23,0-3.34c0.91,0.01,1.81,0.03,2.72,0.04
			C350.46,353.65,350.46,354.81,350.46,355.97z M347.74,349.16c0-1.12,0-2.23,0-3.35c0.91,0,1.81-0.01,2.72-0.02
			c0,1.16,0,2.32,0,3.48C349.55,349.23,348.64,349.2,347.74,349.16z M350.45,342.57c-0.91-0.02-1.81-0.03-2.72-0.05
			c0-1.11,0-2.23,0-3.34c0.91-0.03,1.81-0.06,2.72-0.09C350.45,340.25,350.45,341.41,350.45,342.57z M347.73,335.89
			c0-1.12,0-2.23,0-3.35c0.91-0.05,1.81-0.1,2.72-0.15c0,1.16,0,2.32,0,3.48C349.55,335.88,348.64,335.89,347.73,335.89z
			 M350.45,329.17c-0.91,0.03-1.81,0.06-2.72,0.08c0-1.12,0-2.23,0-3.34c0.91-0.07,1.81-0.15,2.72-0.22
			C350.45,326.85,350.45,328.02,350.45,329.17z M350.45,322.47c-0.91,0.05-1.81,0.1-2.72,0.15c0-1.12,0-2.23,0-3.35
			c0.91-0.1,1.81-0.19,2.72-0.28C350.45,320.15,350.45,321.31,350.45,322.47z M350.45,315.77c-0.9,0.07-1.81,0.14-2.72,0.21
			c0-1.11,0-2.23,0-3.34c0.91-0.12,1.81-0.23,2.72-0.35C350.45,313.45,350.45,314.62,350.45,315.77z M350.45,309.08
			c-0.9,0.09-1.81,0.19-2.72,0.28c0-1.12,0-2.23,0-3.35c0.91-0.14,1.81-0.28,2.72-0.41C350.45,306.75,350.45,307.92,350.45,309.08z
			 M350.45,302.37c-0.9,0.11-1.81,0.23-2.72,0.34c0-1.11,0-2.23,0-3.35c0.9-0.16,1.81-0.32,2.72-0.48
			C350.45,300.05,350.45,301.22,350.45,302.37z M350.45,295.68c-0.91,0.14-1.81,0.27-2.72,0.41c0-1.11,0-2.23,0-3.34
			c0.91-0.18,1.81-0.36,2.72-0.54C350.45,293.36,350.45,294.51,350.45,295.68z M350.45,288.97c-0.91,0.16-1.81,0.32-2.72,0.47
			c0-1.11,0-2.23,0-3.35c0.91-0.2,1.81-0.4,2.72-0.61C350.45,286.66,350.45,287.82,350.45,288.97z M350.45,282.27
			c-0.91,0.18-1.81,0.36-2.72,0.54c0-1.12,0-2.23,0-3.34c0.91-0.23,1.81-0.45,2.72-0.67C350.45,279.95,350.45,281.11,350.45,282.27z
			 M347.73,276.18c0-1.11,0-2.23,0-3.34c0.91-0.25,1.81-0.49,2.72-0.74c0,1.16,0,2.32,0,3.48
			C349.54,275.78,348.64,275.98,347.73,276.18z M350.45,268.88c-0.91,0.22-1.81,0.45-2.72,0.67c0-1.12,0-2.23,0-3.34
			c0.91-0.27,1.81-0.54,2.72-0.8C350.45,266.56,350.45,267.72,350.45,268.88z M347.73,259.56l2.72-0.87v3.48l-2.72,0.74V259.56z
			 M345.25,375.46l-2.35-0.32v-3.14l2.35,0.21V375.46z M345.24,368.88c-0.78-0.09-1.56-0.18-2.35-0.27c0-1.05,0-2.09,0-3.14
			c0.78,0.05,1.56,0.1,2.35,0.15C345.24,366.71,345.24,367.79,345.24,368.88z M345.22,362.3c-0.78-0.07-1.57-0.14-2.35-0.21
			c0-1.05,0-2.09,0-3.14c0.78,0.03,1.56,0.06,2.35,0.09C345.22,360.13,345.22,361.22,345.22,362.3z M345.2,355.73
			c-0.78-0.05-1.57-0.11-2.35-0.16c0-1.05,0-2.1,0-3.14c0.78,0.01,1.56,0.03,2.35,0.04C345.2,353.56,345.2,354.64,345.2,355.73z
			 M345.18,349.15c-0.78-0.03-1.56-0.07-2.35-0.1c0-1.05,0-2.09,0-3.14c0.78-0.01,1.56-0.01,2.35-0.02
			C345.18,346.98,345.18,348.06,345.18,349.15z M345.16,342.57c-0.78-0.01-1.56-0.03-2.35-0.04c0-1.05,0-2.1,0-3.14
			c0.79-0.03,1.57-0.05,2.35-0.07C345.16,340.4,345.16,341.49,345.16,342.57z M345.15,336c-0.78,0-1.56,0.01-2.35,0.01
			c0-1.05,0-2.09,0-3.14c0.78-0.04,1.56-0.09,2.35-0.13C345.15,333.82,345.15,334.91,345.15,336z M345.13,329.42
			c-0.78,0.03-1.56,0.05-2.35,0.07c0-1.05,0-2.09,0-3.14c0.78-0.06,1.57-0.12,2.35-0.19C345.13,327.25,345.13,328.33,345.13,329.42z
			 M345.11,322.84c-0.78,0.04-1.56,0.08-2.35,0.13c0-1.05,0-2.09,0-3.14c0.78-0.08,1.56-0.16,2.35-0.24
			C345.11,320.67,345.11,321.76,345.11,322.84z M345.09,316.26c-0.78,0.06-1.57,0.12-2.35,0.19c0-1.05,0-2.1,0-3.14
			c0.78-0.1,1.57-0.2,2.35-0.3C345.09,314.09,345.09,315.18,345.09,316.26z M345.08,309.69c-0.78,0.08-1.57,0.16-2.35,0.24
			c0-1.05,0-2.09,0-3.14c0.78-0.12,1.57-0.24,2.35-0.36C345.08,307.52,345.08,308.6,345.08,309.69z M345.06,303.11
			c-0.78,0.1-1.57,0.2-2.35,0.29c0-1.05,0-2.09,0-3.14c0.78-0.14,1.56-0.27,2.35-0.41C345.06,300.94,345.06,302.03,345.06,303.11z
			 M345.04,296.54c-0.78,0.12-1.57,0.23-2.35,0.35c0-1.05,0-2.1,0-3.14c0.78-0.16,1.56-0.32,2.35-0.47
			C345.04,294.36,345.04,295.45,345.04,296.54z M345.02,289.96c-0.78,0.14-1.57,0.27-2.35,0.41c0-1.05,0-2.09,0-3.14
			c0.78-0.18,1.57-0.35,2.35-0.53C345.02,287.79,345.02,288.87,345.02,289.96z M345,283.38c-0.78,0.16-1.56,0.31-2.35,0.47
			c0-1.05,0-2.09,0-3.14c0.78-0.19,1.56-0.39,2.35-0.58C345,281.21,345,282.3,345,283.38z M344.99,276.8
			c-0.78,0.18-1.56,0.35-2.35,0.52c0-1.05,0-2.09,0-3.14c0.78-0.22,1.57-0.43,2.35-0.64C344.99,274.63,344.99,275.72,344.99,276.8z
			 M344.97,270.23c-0.78,0.19-1.56,0.39-2.35,0.58c0-1.05,0-2.09,0-3.14c0.78-0.23,1.56-0.46,2.35-0.7
			C344.97,268.06,344.97,269.14,344.97,270.23z M342.6,261.15l2.35-0.75v3.25l-2.35,0.64V261.15z"/>
	</g>
	<polygon class="st14" points="26,388.87 236.46,421.5 371.51,420.64 465.65,378.94 420.84,378.66 374.23,390.68 337,385.26 
		298.93,396.24 274.2,392.9 238.35,402.07 169.99,390.96 121.57,398.15 85.52,388.87 	"/>
	<g>
		<polygon class="st4" points="243.89,151.1 268.86,158.86 268.86,165.13 243.89,157.9 		"/>
		<path class="st4" d="M243.89,168.6c8.33,2.25,16.65,4.49,24.97,6.74c0,2.07,0,4.14,0,6.2c-8.32-2.05-16.65-4.1-24.97-6.15
			C243.89,173.13,243.89,170.86,243.89,168.6z"/>
		<path class="st4" d="M243.89,186.09c8.33,1.91,16.65,3.82,24.97,5.72c0,2.05,0,4.1,0,6.14c-8.32-1.69-16.65-3.38-24.97-5.07
			C243.89,190.62,243.89,188.35,243.89,186.09z"/>
		<path class="st4" d="M243.89,203.58c8.33,1.57,16.65,3.14,24.97,4.71c0,2.03,0,4.06,0,6.08c-8.32-1.33-16.65-2.66-24.97-3.99
			C243.89,208.11,243.89,205.85,243.89,203.58z"/>
		<path class="st4" d="M243.89,221.07c8.33,1.23,16.65,2.46,24.97,3.69c0,2.01,0,4.01,0,6.02c-8.32-0.97-16.65-1.94-24.97-2.92
			C243.89,225.6,243.89,223.34,243.89,221.07z"/>
		<path class="st4" d="M243.89,238.57c8.33,0.89,16.65,1.78,24.97,2.67c0,1.99,0,3.98,0,5.96c-8.32-0.61-16.65-1.22-24.97-1.84
			C243.89,243.1,243.89,240.83,243.89,238.57z"/>
		<path class="st4" d="M243.89,256.06c8.33,0.55,16.65,1.1,24.97,1.65c0,1.97,0,3.93,0,5.9c-8.32-0.25-16.65-0.51-24.97-0.76
			C243.89,260.59,243.89,258.33,243.89,256.06z"/>
		<path class="st4" d="M243.89,273.55c8.33,0.22,16.65,0.43,24.97,0.64c0,1.95,0,3.89,0,5.84c-8.32,0.11-16.65,0.21-24.97,0.32
			C243.89,278.08,243.89,275.82,243.89,273.55z"/>
		<path class="st4" d="M243.89,291.05c8.33-0.13,16.65-0.25,24.97-0.38c0,1.93,0,3.85,0,5.78c-8.32,0.47-16.65,0.93-24.97,1.4
			C243.89,295.58,243.89,293.31,243.89,291.05z"/>
		<path class="st4" d="M243.89,308.54c8.33-0.47,16.65-0.93,24.97-1.4c0,1.9,0,3.81,0,5.72c-8.32,0.82-16.65,1.65-24.97,2.47
			C243.89,313.07,243.89,310.8,243.89,308.54z"/>
		<path class="st4" d="M243.89,326.04c8.33-0.81,16.65-1.61,24.97-2.41c0,1.89,0,3.77,0,5.66c-8.32,1.18-16.65,2.37-24.97,3.55
			C243.89,330.56,243.89,328.3,243.89,326.04z"/>
		<path class="st4" d="M243.89,343.53c8.33-1.14,16.65-2.29,24.97-3.43c0,1.86,0,3.73,0,5.6c-8.32,1.54-16.65,3.08-24.97,4.63
			C243.89,348.06,243.89,345.8,243.89,343.53z"/>
		<path class="st4" d="M243.89,361.02c8.33-1.48,16.65-2.97,24.97-4.45c0,1.84,0,3.69,0,5.54c-8.32,1.9-16.65,3.8-24.97,5.71
			C243.89,365.55,243.89,363.29,243.89,361.02z"/>
		<polygon class="st4" points="243.89,378.52 268.86,373.05 268.86,378.53 243.89,385.31 		"/>
	</g>
	<polygon class="st4" points="390.74,374.97 377.34,378.61 377.34,374.97 390.74,372.04 	"/>
	<path class="st4" d="M390.74,366.17c-4.47,1.02-8.93,2.04-13.39,3.06c0-1.21,0-2.43,0-3.64c4.47-0.8,8.93-1.59,13.39-2.38
		C390.74,364.19,390.74,365.18,390.74,366.17z"/>
	<path class="st4" d="M390.74,357.37c-4.47,0.83-8.93,1.65-13.39,2.48c0-1.21,0-2.43,0-3.64c4.47-0.61,8.93-1.23,13.39-1.84
		C390.74,355.36,390.74,356.36,390.74,357.37z"/>
	<path class="st4" d="M390.74,348.56c-4.47,0.64-8.93,1.27-13.39,1.91c0-1.21,0-2.43,0-3.64c4.47-0.43,8.93-0.86,13.39-1.29
		C390.74,346.54,390.74,347.55,390.74,348.56z"/>
	<path class="st4" d="M390.74,339.76c-4.47,0.44-8.93,0.88-13.39,1.33c0-1.21,0-2.43,0-3.64c4.47-0.25,8.93-0.5,13.39-0.75
		C390.74,337.71,390.74,338.73,390.74,339.76z"/>
	<path class="st4" d="M390.74,330.95c-4.47,0.25-8.93,0.5-13.39,0.75c0-1.21,0-2.43,0-3.64c4.47-0.07,8.93-0.14,13.39-0.21
		C390.74,328.89,390.74,329.92,390.74,330.95z"/>
	<path class="st4" d="M390.74,322.15c-4.47,0.06-8.93,0.11-13.39,0.17c0-1.21,0-2.43,0-3.65c4.47,0.12,8.93,0.23,13.39,0.34
		C390.74,320.06,390.74,321.1,390.74,322.15z"/>
	<path class="st4" d="M390.74,313.34c-4.47-0.14-8.93-0.27-13.39-0.41c0-1.22,0-2.43,0-3.65c4.47,0.3,8.93,0.59,13.39,0.89
		C390.74,311.23,390.74,312.29,390.74,313.34z"/>
	<path class="st4" d="M390.74,304.54c-4.47-0.33-8.93-0.66-13.39-0.98c0-1.21,0-2.43,0-3.64c4.47,0.48,8.93,0.95,13.39,1.43
		C390.74,302.41,390.74,303.47,390.74,304.54z"/>
	<path class="st4" d="M390.74,295.73c-4.47-0.52-8.93-1.04-13.39-1.56c0-1.21,0-2.43,0-3.64c4.47,0.66,8.93,1.32,13.39,1.98
		C390.74,293.58,390.74,294.66,390.74,295.73z"/>
	<path class="st4" d="M390.74,286.93c-4.47-0.71-8.93-1.43-13.39-2.14c0-1.21,0-2.43,0-3.65c4.47,0.84,8.93,1.69,13.39,2.53
		C390.74,284.76,390.74,285.84,390.74,286.93z"/>
	<path class="st4" d="M390.74,278.13c-4.47-0.91-8.93-1.81-13.39-2.72c0-1.21,0-2.43,0-3.64c4.47,1.02,8.93,2.05,13.39,3.07
		C390.74,275.93,390.74,277.03,390.74,278.13z"/>
	<path class="st4" d="M390.74,269.32c-4.47-1.1-8.93-2.2-13.39-3.3c0-1.21,0-2.43,0-3.64c4.47,1.2,8.93,2.41,13.39,3.61
		C390.74,267.1,390.74,268.21,390.74,269.32z"/>
	<polygon class="st4" points="390.74,260.52 377.34,256.64 377.34,253 390.74,257.16 	"/>
	<g>
		<g>
			<path class="st15" d="M302.74,422.75c0.01-0.42,0.03-0.83,0.03-1.25c0-18.31-14.84-33.15-33.15-33.15
				c-18.31,0-33.16,14.84-33.16,33.15c0,0.42,0.02,0.84,0.03,1.25H302.74z"/>
			<path class="st16" d="M371.46,422.75c0.02-0.7,0.05-1.4,0.05-2.11c0-30.92-22.15-55.99-49.47-55.99
				c-27.33,0-49.47,25.07-49.47,55.99c0,0.71,0.02,1.41,0.05,2.11H371.46z"/>
			<polyline class="st17" points="348.73,373.51 310.14,403.68 300.46,422.75 			"/>
			<line class="st17" x1="307.73" y1="408.41" x2="362.45" y2="388.34"/>
			<polyline class="st17" points="371.51,408.41 304.68,414.43 283.94,384.9 			"/>
			<line class="st17" x1="310.14" y1="403.68" x2="292.34" y2="377.07"/>
			<path class="st18" d="M420.87,378.61L420.87,378.61c-10.5,0-19.02-8.51-19.02-19.02v-32.67c0-10.5,8.52-19.02,19.02-19.02
				c10.5,0,19.02,8.51,19.02,19.02v32.67C439.89,370.1,431.37,378.61,420.87,378.61"/>
			<path class="st18" d="M404.96,389.41L404.96,389.41c-10.5,0-19.01-8.51-19.01-19.02V358.8c0-10.5,8.51-19.02,19.01-19.02
				c10.5,0,19.02,8.51,19.02,19.02v11.59C423.98,380.9,415.46,389.41,404.96,389.41"/>
			<path class="st18" d="M420.87,399.81L420.87,399.81c-10.5,0-19.02-8.51-19.02-19.02V369.2c0-10.5,8.52-19.02,19.02-19.02
				c10.5,0,19.02,8.51,19.02,19.02v11.59C439.89,391.3,431.37,399.81,420.87,399.81"/>
			<line class="st19" x1="418.16" y1="416.46" x2="418.16" y2="325.34"/>
			<line class="st19" x1="418.16" y1="378.61" x2="430.64" y2="366.13"/>
			<line class="st19" x1="418.16" y1="358.36" x2="405.76" y2="345.96"/>
			<line class="st19" x1="418.16" y1="389.41" x2="399.9" y2="371.16"/>
			<path class="st18" d="M409.38,421.4v-11.74c0-6.24-5.1-11.34-11.34-11.34c-6.23,0-11.34,5.1-11.34,11.34v11.74H409.38z"/>
			<path class="st18" d="M422.44,421.4v-7.38c0-3.92-3.21-7.13-7.13-7.13c-3.92,0-7.13,3.21-7.13,7.13v7.38H422.44z"/>
		</g>
		<g>
			<path class="st0" d="M196.42,434.74c0,4.81-31.13,8.7-69.54,8.7c-38.4,0-69.54-3.9-69.54-8.7c0-4.81,31.13-8.71,69.54-8.71
				C165.29,426.04,196.42,429.93,196.42,434.74"/>
			<path class="st20" d="M141.71,319.73c0,0-7.35-60.21-14.15-73.28c-6.81-13.07-31.48-8.62-29.24,9
				c2.24,17.62,24.56,66.99,24.56,66.99s3.31,6.36,10.36,5.55C140.28,327.18,141.71,319.73,141.71,319.73"/>
			<path class="st21" d="M159,409.95c0,0,9.11,6.16,17.45,6.24c8.34,0.08,13.06,0.71,13.06,0.71l1.97,6.73l-36.22,10.6l-5.45-20.34
				L159,409.95z"/>
			
				<rect x="154.86" y="428.88" transform="matrix(0.9597 -0.2809 0.2809 0.9597 -113.8186 66.1093)" class="st22" width="37.74" height="2.53"/>
			<polygon class="st23" points="164.55,413.01 161.21,418.1 163.01,419.09 166.04,413.68 			"/>
			<polygon class="st23" points="168.57,414.65 166.43,419.96 168.08,420.63 170.08,415.14 			"/>
			<polygon class="st23" points="172.08,415.65 171.09,421.12 172.96,421.01 173.72,415.96 			"/>
			<path class="st22" d="M182.69,416.36c0,0,1.81,6.6,8.26,5.43l-1.43-4.9L182.69,416.36z"/>
			<path class="st22" d="M150.55,416.61c0,0,4.2-1.37,5.01-2.55c0.81-1.17,0.72-2.95,0.72-2.95l-6.46,2.78L150.55,416.61z"/>
			<path class="st20" d="M88.99,320.09c0,0,12.81-59.29,10.67-73.87c-2.14-14.58-26.91-18.47-30.58-1.09
				c-3.66,17.38,1.22,71.34,1.22,71.34s1.04,7.09,7.96,8.64C85.19,326.66,88.99,320.09,88.99,320.09"/>
			<path class="st20" d="M81.69,411.51l10.14-105.26c0,0,1.45-9.37-7.98-9.02c-9.43,0.35-13.84,16-14.31,28.12
				c-0.48,12.13,2.24,87.37,2.24,87.37L81.69,411.51z"/>
			<path class="st21" d="M81.69,411.51c0,0,7.02,8.46,15.01,10.88c7.98,2.41,12.34,4.34,12.34,4.34l0.01,7.02l-37.74,0.03
				l0.47-21.05L81.69,411.51z"/>
			<rect x="71.3" y="433.76" class="st22" width="37.74" height="2.53"/>
			<polygon class="st23" points="86.16,416.01 81.52,419.96 82.98,421.41 87.4,417.06 			"/>
			<polygon class="st23" points="89.55,418.7 86.02,423.2 87.41,424.31 90.87,419.59 			"/>
			<polygon class="st23" points="92.65,420.65 90.17,425.62 91.99,426.04 94.14,421.4 			"/>
			<path class="st22" d="M102.63,424.3c0,0-0.11,6.85,6.41,7.53l0-5.1L102.63,424.3z"/>
			<path class="st22" d="M71.71,415.54c0,0,4.42-0.14,5.52-1.04c1.11-0.9,1.52-2.63,1.52-2.63l-6.98,0.86L71.71,415.54z"/>
			<path class="st20" d="M67.71,245.13c0,0,14.56,13.32,31.87,12.46c17.31-0.86,27.31-12.5,27.31-12.5s-7.19-13.44-25.21-13.78
				C83.66,230.96,67.71,245.13,67.71,245.13"/>
			<path class="st24" d="M114.81,92.86c0.01,9.66-8.49,17.49-18.97,17.5c-10.48,0.01-18.99-7.82-18.99-17.47
				c-0.01-9.66,8.48-17.49,18.97-17.5C106.3,75.38,114.81,83.21,114.81,92.86"/>
			<path class="st24" d="M87.71,108.69l-6.62,37.22c0,0,3.1,8.96,14.79,8.74c11.69-0.22,15.31-9.62,15.31-9.62l-8.81-35.73
				C102.37,109.3,98.2,101.78,87.71,108.69"/>
			<path class="st25" d="M110.69,143.02c0,0,28.77-0.28,28.79,20.05c0.01,20.33-12.59,82.01-12.59,82.01l-59.17,0.04
				c0,0-3.06-35.2-9.14-47.03c-6.08-11.83-16.72-44.9,5.42-50.38c0,0,12.14-2.21,24.27-2.94
				C100.41,144.05,110.69,143.02,110.69,143.02"/>
			<path class="st25" d="M69.36,169.48c0.01,8.18-6.62,14.81-14.8,14.82c-8.18,0-14.81-6.62-14.82-14.8
				c-0.01-8.18,13.63-21.01,21.81-21.01C69.73,148.48,69.35,161.3,69.36,169.48"/>
			<path class="st25" d="M39.92,167.78c0,0-13.02,46.2-12.3,60.27c0.71,14.06,15.48,15.11,19.69-2.47
				c4.21-17.58,7.92-34.52,14.71-43.3c0,0,4.23-12.62-3.5-17.53C50.78,159.82,44.53,161.31,39.92,167.78"/>
			<path class="st25" d="M48.7,227.31c0,0,31.87,37.42,43.34,46l7.7,5.74l-7.57,11.6c0,0-25.73-18.15-41.76-33.7
				c-16.03-15.55-19.26-20.39-19.26-20.39s-7.44-8.38-0.8-15.61C36.99,213.72,45.83,224.13,48.7,227.31"/>
			<path class="st24" d="M99.75,279.05c0,0,8.16,0.93,11.63,4.41c3.47,3.48,2.96,3.88,1.35,4.07c-1.61,0.19-5.27-2.73-6.93-2.16
				c-1.66,0.57,11.79,11.65,12.21,13.32l0.42,1.67c0,0-6.56,2.2-12.08-0.75c-5.52-2.96-14.16-8.95-14.16-8.95L99.75,279.05z"/>
			<polyline class="st21" points="92.04,273.31 99.75,279.05 92.17,290.66 82.82,283.82 			"/>
			<path class="st25" d="M120.76,169.22c0.01,8.18,6.64,14.8,14.82,14.8c8.18,0,14.8-6.64,14.8-14.82
				c-0.01-8.18-13.66-20.99-21.84-20.98C120.35,148.22,120.75,161.04,120.76,169.22"/>
			<path class="st25" d="M146.05,159.51c0,0,22.93,45.96,24.54,59.95c1.61,13.99-12.78,17.45-19.82,0.8
				c-7.04-16.65-13.49-32.75-21.63-40.29c0,0-6.25-11.75,0.57-17.87C136.53,155.97,140.44,153.88,146.05,159.51"/>
			<path class="st25" d="M167.42,210.98c0,0,47.16-13.85,59.67-20.82l8.38-4.69l7.5,11.64c0,0-27.06,16.09-47.8,24.39
				c-20.74,8.3-26.47,9.27-26.47,9.27s-10.69,3.38-14.59-5.64C150.24,216.13,163.34,212.3,167.42,210.98"/>
			<path class="st24" d="M235.48,185.47c0,0,4.18-7.07,8.77-8.82c4.59-1.75,4.75-1.12,4.27,0.42c-0.48,1.55-4.65,3.7-4.8,5.45
				c-0.15,1.75,15.44-6.02,17.14-5.72l1.69,0.3c0,0-0.67,6.89-5.61,10.72c-4.95,3.83-13.95,9.28-13.95,9.28L235.48,185.47z"/>
			<polygon class="st21" points="228.25,189.52 235.48,185.47 242.98,197.12 235.61,201.37 			"/>
			<path class="st26" d="M93.67,85.34c0,0.68-0.55,1.22-1.22,1.22c-0.68,0-1.22-0.55-1.22-1.22c0-0.67,0.54-1.22,1.22-1.22
				C93.13,84.12,93.67,84.67,93.67,85.34"/>
			<path class="st26" d="M105.7,85.33c0,0.68-0.55,1.22-1.22,1.22c-0.68,0-1.22-0.55-1.22-1.22c0-0.67,0.55-1.22,1.22-1.22
				C105.16,84.11,105.7,84.66,105.7,85.33"/>
			<path class="st17" d="M93.26,98.66c0,0,1.99,2.99,5.71,3.08c3.72,0.09,5.52-3.08,5.52-3.08"/>
			<path class="st27" d="M102.37,109.3c0,0-7.34,2.66-14.66-0.61c0,0,2.12,6.13,8.72,7.34c6.6,1.21,7.64,0.17,7.64,0.17
				L102.37,109.3z"/>
			<path class="st27" d="M98.86,85.34c0,0-0.25,2.21,1.73,3.96c1.98,1.75,2.17,3.83,0,4.55c-2.17,0.73-2.65-1.3-2.61-3.33
				C98.03,88.49,98.34,85.32,98.86,85.34"/>
			<path class="st23" d="M83.13,134.45l14.09,3.83l11.17-4.56l2.79,11.32c0,0-2.9,11-13.95,9.54c-11.05-1.46-16.14-8.67-16.14-8.67
				L83.13,134.45z"/>
			<polyline class="st28" points="91.95,153.34 97.22,138.28 106.69,152.04 			"/>
			<path class="st26" d="M84.06,91.46c0,0,4.72-1.92,4.3-7c-0.42-5.08-2.76-6.04-2.76-6.04s6.52,1.55,14.84,1.36
				c8.32-0.19,14.12-5.04,9.39-7.85c-4.73-2.81-17.77-2.2-26.44,2.35c-8.67,4.56-8.56,19.11-6.18,23.58c0,0,1.65-0.12,1.1-2.45
				C77.77,93.08,79.75,88.47,84.06,91.46"/>
			<path class="st27" d="M84.63,92.89c0,1.98-1.6,3.58-3.58,3.58c-1.98,0-3.58-1.6-3.58-3.57c0-1.98,1.6-3.58,3.58-3.58
				C83.02,89.31,84.63,90.91,84.63,92.89"/>
			<path class="st26" d="M81.86,75.25c0,0,3.26-4.46,8.03-5C94.66,69.7,84.18,76.42,81.86,75.25"/>
			<path class="st29" d="M95.01,90.83c0,0.85-0.94,1.53-2.11,1.54c-1.16,0-2.11-0.69-2.11-1.53c0-0.85,0.94-1.53,2.11-1.53
				C94.07,89.3,95.01,89.99,95.01,90.83"/>
			<path class="st29" d="M109.03,90.82c0,0.85-0.94,1.53-2.11,1.53c-1.17,0-2.11-0.68-2.11-1.53c0-0.84,0.94-1.53,2.11-1.53
				C108.09,89.29,109.03,89.98,109.03,90.82"/>
			<polygon class="st21" points="66.45,233.63 67.71,245.13 126.88,245.08 129.4,232.28 			"/>
			<path class="st21" d="M80.16,145.46c0,0,9.32,10.41,19.67,9.25c10.36-1.16,11.35-9.68,11.35-9.68l-0.49-2.01l4.16,0
				c0,0-2.74,16.41-15.52,16.49c-12.78,0.07-22.44-13.68-22.44-13.68L80.16,145.46z"/>
			<path class="st20" d="M159,409.95l-19.76-103.88c0,0-1.23-9.4-10.19-6.42c-8.96,2.97-8.8,19.23-5.86,31.01
				c2.94,11.77,26.63,83.24,26.63,83.24L159,409.95z"/>
		</g>
	</g>
	<path class="st0" d="M474,196.53c0,1.3-0.53,2.49-1.39,3.34c-0.85,0.86-2.04,1.39-3.34,1.39H368.05c-2.6,0-4.73-2.13-4.73-4.73
		c0-1.3,0.53-2.49,1.39-3.34c0.85-0.86,2.04-1.39,3.34-1.39h4.79c1.89-4.39,6.25-7.46,11.33-7.46c3.42,0,6.51,1.39,8.75,3.64
		c2.98-5.06,8.48-8.45,14.78-8.45c1.73,0,3.4,0.26,4.97,0.74c3.29-6.19,9.8-10.41,17.31-10.41c9.01,0,16.59,6.09,18.88,14.36
		c1.66-0.83,3.53-1.3,5.52-1.3c5.62,0,10.36,3.75,11.85,8.89h3.05C471.87,191.8,474,193.93,474,196.53"/>
	<path class="st18" d="M446.74,290.51c4.16,0,7.54,3.38,7.54,7.54c0,4.16-3.38,7.54-7.54,7.54c-4.16,0-7.54-3.38-7.54-7.54
		C439.2,293.9,442.58,290.51,446.74,290.51 M446.74,292.88c-2.85,0-5.18,2.32-5.18,5.18c0,2.85,2.32,5.18,5.18,5.18
		c2.85,0,5.18-2.32,5.18-5.18C451.92,295.2,449.6,292.88,446.74,292.88"/>
	<path class="st21" d="M439.07,252.18c4.16,0,7.54,3.38,7.54,7.54c0,4.16-3.38,7.54-7.54,7.54c-4.16,0-7.54-3.38-7.54-7.54
		C431.53,255.56,434.91,252.18,439.07,252.18 M439.07,254.54c-2.85,0-5.18,2.32-5.18,5.18c0,2.85,2.32,5.18,5.18,5.18
		c2.86,0,5.18-2.32,5.18-5.18C444.25,256.87,441.93,254.54,439.07,254.54"/>
	<path class="st18" d="M416.13,241.55c0,0.65,0.53,1.18,1.18,1.18h5.22c0.65,0,1.18-0.53,1.18-1.18c0-0.65-0.53-1.18-1.18-1.18
		h-5.22C416.66,240.37,416.13,240.9,416.13,241.55"/>
	<path class="st18" d="M407,241.55c0,0.65,0.53,1.18,1.18,1.18h5.22c0.65,0,1.18-0.53,1.18-1.18c0-0.65-0.53-1.18-1.18-1.18h-5.22
		C407.53,240.37,407,240.9,407,241.55"/>
	<path class="st18" d="M414.17,234.23v4.69c0,0.65,0.53,1.18,1.18,1.18c0.65,0,1.18-0.53,1.18-1.18v-4.69
		c0-0.65-0.53-1.18-1.18-1.18C414.7,233.05,414.17,233.58,414.17,234.23"/>
	<path class="st18" d="M414.17,244.19v4.69c0,0.65,0.53,1.18,1.18,1.18c0.65,0,1.18-0.53,1.18-1.18v-4.69
		c0-0.65-0.53-1.18-1.18-1.18C414.7,243.01,414.17,243.54,414.17,244.19"/>
	<path class="st0" d="M424.64,281.84c0,0.65,0.53,1.18,1.18,1.18h5.22c0.65,0,1.18-0.53,1.18-1.18c0-0.65-0.53-1.18-1.18-1.18h-5.22
		C425.17,280.66,424.64,281.19,424.64,281.84"/>
	<path class="st0" d="M415.5,281.84c0,0.65,0.53,1.18,1.18,1.18h5.22c0.65,0,1.18-0.53,1.18-1.18c0-0.65-0.53-1.18-1.18-1.18h-5.22
		C416.03,280.66,415.5,281.19,415.5,281.84"/>
	<path class="st0" d="M422.68,274.52v4.69c0,0.66,0.53,1.18,1.18,1.18s1.18-0.53,1.18-1.18v-4.69c0-0.65-0.53-1.18-1.18-1.18
		S422.68,273.86,422.68,274.52"/>
	<path class="st0" d="M422.68,284.48v4.69c0,0.65,0.53,1.18,1.18,1.18s1.18-0.53,1.18-1.18v-4.69c0-0.66-0.53-1.18-1.18-1.18
		S422.68,283.82,422.68,284.48"/>
	<path class="st0" d="M325.83,70.35c0,0.67-0.27,1.29-0.72,1.73c-0.44,0.45-1.05,0.72-1.73,0.72h-52.33c-1.34,0-2.45-1.1-2.45-2.45
		c0-0.67,0.27-1.28,0.72-1.73c0.44-0.45,1.05-0.72,1.73-0.72h2.47c0.98-2.27,3.23-3.86,5.86-3.86c1.77,0,3.37,0.72,4.52,1.88
		c1.54-2.62,4.39-4.37,7.64-4.37c0.9,0,1.76,0.13,2.57,0.38c1.7-3.2,5.07-5.38,8.95-5.38c4.66,0,8.58,3.15,9.76,7.43
		c0.86-0.43,1.83-0.67,2.85-0.67c2.9,0,5.36,1.94,6.13,4.6h1.57C324.73,67.9,325.83,69,325.83,70.35"/>
</g>
</svg>
